<?xml version="1.0" encoding="UTF-8" standalone="no"?>
<!DOCTYPE svg PUBLIC "-//W3C//DTD SVG 1.1//EN" "http://www.w3.org/Graphics/SVG/1.1/DTD/svg11.dtd">
<svg xmlns="http://www.w3.org/2000/svg" version="1.1" viewBox="0.00 0.00 500.00 78.00">
<g stroke-width="2.00" fill="none" stroke-linecap="butt">
<path stroke="#e8d499" vector-effect="non-scaling-stroke" d="
  M 152.71 53.50
  Q 151.45 54.73 149.90 55.42"
/>
<path stroke="#f9f9f9" vector-effect="non-scaling-stroke" d="
  M 149.90 55.42
  L 149.52 55.92
  Q 149.21 56.33 149.43 56.80
  Q 150.24 58.52 152.08 59.72
  Q 152.76 60.17 153.57 60.04
  L 159.66 59.03
  Q 160.29 58.93 160.53 58.35
  Q 160.87 57.53 161.51 56.95
  Q 161.91 56.58 161.94 56.05
  Q 162.03 54.42 161.33 53.24
  Q 161.02 52.71 161.12 52.12
  Q 161.34 50.73 161.46 49.25
  Q 161.58 47.83 162.28 46.90
  C 163.60 45.17 166.02 44.92 167.82 46.12
  C 169.10 46.97 170.44 47.33 171.31 48.69
  Q 173.10 51.48 172.56 54.23
  Q 172.18 56.17 172.86 58.33
  A 1.58 1.57 -83.5 0 0 173.57 59.23
  C 176.30 60.88 178.16 59.57 180.89 59.58
  Q 182.74 59.58 184.64 59.94
  Q 189.93 60.95 196.18 59.27
  Q 200.62 58.07 200.10 54.04
  Q 200.07 53.84 199.93 53.69
  Q 199.79 53.54 199.62 53.41
  Q 199.27 53.13 199.25 52.67
  L 199.08 46.46
  A 2.83 2.82 -4.1 0 1 201.58 43.58
  Q 203.00 43.42 204.01 42.44
  A 1.48 1.45 -65.8 0 1 205.11 42.01
  Q 205.90 42.05 206.36 41.50
  Q 206.65 41.15 207.09 41.02
  Q 209.59 40.25 211.75 38.47
  C 213.09 37.36 213.01 35.60 215.00 35.22
  Q 215.29 35.17 215.53 35.34
  Q 216.86 36.34 216.56 38.03
  Q 215.38 44.61 215.64 52.00
  Q 215.66 52.47 215.42 52.87
  Q 213.42 56.12 216.16 58.99
  Q 217.70 60.59 219.38 60.12
  Q 222.15 59.33 225.00 58.87
  Q 225.49 58.80 225.90 58.50
  Q 226.37 58.16 226.87 57.89
  Q 227.29 57.67 227.36 57.21
  Q 227.46 56.53 228.35 55.86"
/>
<path stroke="#e8d499" vector-effect="non-scaling-stroke" d="
  M 228.35 55.86
  Q 225.65 54.46 225.17 51.51
  Q 225.15 51.37 225.10 46.47
  Q 225.01 35.86 225.17 25.25
  Q 225.20 23.11 226.42 22.00"
/>
<path stroke="#f9f9f9" vector-effect="non-scaling-stroke" d="
  M 226.42 22.00
  Q 228.10 22.19 228.67 21.18
  Q 228.95 20.69 228.56 20.28
  Q 226.34 18.00 222.88 18.58
  Q 217.06 19.55 212.03 19.16
  Q 208.00 18.84 203.90 18.87
  C 198.05 18.93 192.69 19.00 186.79 19.72
  A 0.68 0.67 89.5 0 0 186.20 20.33
  Q 185.91 23.37 186.46 25.88
  Q 187.31 29.78 187.33 31.27
  Q 187.40 36.83 187.19 41.93
  C 187.05 45.46 187.43 48.93 187.24 52.44
  A 0.92 0.91 -79.8 0 1 186.05 53.27
  Q 185.03 52.95 184.69 51.92
  Q 183.67 48.80 182.71 45.04
  Q 182.39 43.83 181.80 42.74
  Q 181.20 41.61 181.05 40.23
  Q 180.90 38.72 180.24 37.41
  Q 179.21 35.36 178.81 33.09
  Q 178.63 32.08 178.09 31.03
  Q 177.49 29.86 177.08 28.61
  C 176.70 27.49 177.21 26.37 176.46 25.45
  Q 176.15 25.07 176.20 24.58
  C 176.53 21.47 175.73 19.01 176.88 15.86
  Q 177.60 13.90 177.37 12.18
  Q 176.98 9.22 173.87 8.07
  Q 172.78 7.67 171.45 7.95
  Q 170.18 8.21 169.26 8.95
  C 167.12 10.66 164.05 13.99 163.27 16.90
  Q 162.99 17.98 162.40 18.82
  Q 160.20 22.00 160.52 26.11
  Q 160.54 26.47 160.23 26.70
  Q 159.83 26.98 159.72 27.45
  C 159.37 28.94 159.16 30.40 158.66 31.83
  Q 156.24 38.88 154.00 45.99
  Q 152.45 50.94 152.71 53.50"
/>
<path stroke="#e2ce93" vector-effect="non-scaling-stroke" d="
  M 226.42 22.00
  Q 226.88 21.67 226.87 21.31
  A 0.41 0.41 0.0 0 0 226.46 20.91
  L 217.75 20.87
  Q 216.54 20.86 217.44 21.67
  Q 218.92 22.99 218.99 25.06
  Q 219.39 37.28 219.06 51.54
  Q 219.00 54.19 216.89 55.11
  Q 215.24 55.82 217.03 56.02
  Q 222.15 56.57 228.35 55.86"
/>
<path stroke="#e2ce93" vector-effect="non-scaling-stroke" d="
  M 149.90 55.42
  Q 149.96 55.96 150.50 55.97
  Q 154.63 56.06 159.51 55.97
  Q 160.93 55.94 159.64 55.34
  Q 156.76 54.00 157.88 50.61
  Q 159.57 45.42 161.53 40.45
  Q 161.75 39.88 162.37 39.93
  Q 171.67 40.69 175.46 48.26
  C 176.47 50.28 176.98 53.70 174.64 55.09
  Q 173.32 55.87 174.86 55.93
  Q 180.03 56.15 185.02 55.93
  Q 186.51 55.86 185.18 55.18
  Q 183.42 54.27 182.74 52.24
  Q 178.58 39.92 173.26 24.71
  Q 172.60 22.84 173.77 21.23
  Q 174.15 20.71 173.51 20.71
  L 163.72 20.67
  Q 163.00 20.66 163.44 21.23
  Q 164.63 22.76 163.78 25.00
  Q 156.30 44.85 152.71 53.50"
/>
<path stroke="#f9f9f9" vector-effect="non-scaling-stroke" d="
  M 268.64 52.12
  Q 270.42 49.67 270.87 47.31
  Q 271.31 44.96 271.91 42.59
  Q 272.52 40.18 272.25 37.87
  Q 271.85 34.48 271.07 31.33
  Q 270.27 28.11 268.24 25.69
  Q 265.36 22.27 261.57 20.42
  Q 256.42 17.90 251.83 19.07
  Q 250.79 19.33 249.61 19.12
  Q 244.90 18.29 240.48 20.58
  Q 235.76 23.03 233.51 26.76
  Q 231.44 30.17 230.18 35.43
  Q 229.39 38.74 229.72 41.83
  Q 230.32 47.43 232.25 50.27
  Q 234.44 53.48 237.69 56.32
  Q 240.93 59.16 245.02 59.98
  Q 256.21 62.21 264.78 56.04
  Q 266.90 54.50 268.64 52.12"
/>
<path stroke="#e8d499" vector-effect="non-scaling-stroke" d="
  M 68.78 20.86
  Q 68.41 20.43 68.39 20.15"
/>
<path stroke="#f9f9f9" vector-effect="non-scaling-stroke" d="
  M 68.39 20.15
  Q 66.96 19.40 65.49 19.32
  Q 61.65 19.12 57.33 19.91
  Q 56.77 20.01 56.60 20.56
  Q 56.49 20.92 56.12 21.02
  Q 55.60 21.15 55.53 21.68
  Q 54.76 27.25 53.45 30.49
  Q 52.55 32.72 51.74 34.97
  Q 50.92 37.23 50.02 39.43
  Q 49.23 41.37 48.44 43.98
  Q 47.37 47.53 44.84 46.34"
/>
<path stroke="#e8d499" vector-effect="non-scaling-stroke" d="
  M 44.84 46.34
  Q 44.83 46.07 44.70 45.90
  Q 44.44 45.56 44.26 45.95
  C 41.11 52.68 34.96 55.44 27.87 53.13
  Q 19.79 50.50 17.21 41.25"
/>
<path stroke="#f9f9f9" vector-effect="non-scaling-stroke" d="
  M 17.21 41.25
  Q 17.32 39.41 17.18 37.51
  C 17.05 35.72 17.81 34.66 18.37 33.11
  Q 18.81 31.89 19.73 30.85
  Q 20.63 29.84 21.38 28.76
  C 23.46 25.77 27.54 26.11 30.81 26.70
  Q 33.62 27.20 35.76 28.87
  Q 35.82 28.92 36.83 30.09
  Q 38.33 31.82 40.90 29.74"
/>
<path stroke="#e8d499" vector-effect="non-scaling-stroke" d="
  M 40.90 29.74
  L 38.73 20.78
  Q 38.59 20.23 38.03 20.23
  L 25.60 20.09"
/>
<path stroke="#f9f9f9" vector-effect="non-scaling-stroke" d="
  M 25.60 20.09
  Q 24.08 20.24 23.15 19.83
  Q 21.89 19.30 20.72 19.92
  Q 20.33 20.14 19.88 20.12
  Q 17.23 20.05 15.30 21.50
  Q 12.84 23.36 10.28 26.33
  C 9.16 27.63 9.24 28.87 8.45 30.26
  Q 7.64 31.68 7.47 33.30
  Q 6.54 42.36 10.77 49.28
  Q 11.50 50.49 12.44 51.46
  C 14.07 53.15 15.34 55.02 17.28 56.38
  C 23.50 60.74 29.85 60.49 37.19 60.60
  Q 39.76 60.64 42.18 60.13
  Q 44.53 59.64 47.25 60.58
  C 48.57 61.04 49.93 60.83 51.33 60.93
  Q 52.95 61.05 54.19 60.13
  Q 56.28 58.60 56.60 55.57
  Q 56.69 54.76 56.35 53.98
  Q 55.63 52.32 56.48 50.63
  Q 56.67 50.24 56.63 49.81
  Q 56.40 47.30 58.48 45.67
  A 1.64 1.64 0.0 0 1 59.69 45.35
  Q 62.54 45.73 65.26 47.71
  Q 66.78 48.82 67.12 50.79
  Q 67.47 52.76 67.51 54.66
  Q 67.51 54.96 67.76 55.14
  Q 68.07 55.37 67.89 55.74
  C 66.44 58.86 69.15 60.58 71.78 59.96
  C 74.11 59.40 76.39 59.09 78.72 59.58
  Q 85.91 61.09 93.54 58.42
  A 1.14 1.12 -87.4 0 0 94.21 57.80
  Q 95.20 55.49 93.81 53.12
  Q 93.61 52.78 93.56 52.38
  L 92.79 45.25
  A 2.36 0.35 -84.3 0 1 92.76 44.61
  Q 92.78 41.96 94.45 41.84
  A 0.69 0.67 65.6 0 1 95.01 42.06
  C 96.58 43.80 98.46 43.77 99.68 46.13
  Q 101.78 50.21 101.68 54.77
  Q 101.66 55.26 101.90 55.69
  Q 102.20 56.26 102.13 56.92
  Q 102.07 57.48 102.38 57.95
  C 103.32 59.38 104.78 60.33 106.53 59.98
  Q 110.47 59.18 114.69 59.83
  C 118.32 60.39 121.82 59.13 125.46 59.58
  Q 130.19 60.18 133.96 59.79
  Q 137.69 59.41 141.79 57.36
  Q 145.33 55.59 147.65 51.67
  Q 150.37 47.05 151.19 43.25
  C 151.71 40.80 151.65 36.26 150.30 33.55
  Q 149.46 31.86 148.86 30.17
  Q 148.52 29.25 147.95 28.40
  C 146.99 26.98 146.39 25.69 144.98 24.64
  Q 142.59 22.86 140.05 21.44
  C 137.92 20.24 135.45 20.41 133.12 19.88
  Q 132.69 19.78 132.51 20.17
  Q 132.35 20.50 132.00 20.36
  Q 131.01 19.97 130.11 19.67
  C 128.67 19.19 127.39 19.51 125.97 19.14
  Q 125.00 18.89 123.95 18.85
  Q 118.61 18.64 113.98 19.53
  A 0.67 0.67 0.0 0 0 113.45 20.36
  C 114.24 23.58 115.22 26.45 115.13 29.93
  Q 114.89 39.79 114.97 49.49
  Q 114.98 49.98 115.29 50.36
  Q 115.89 51.07 115.39 51.78
  A 1.36 1.36 0.0 0 1 112.96 51.36
  Q 112.16 48.38 110.73 45.68
  Q 108.73 41.88 106.68 38.49
  A 1.94 1.94 0.0 0 1 107.58 35.70
  Q 111.04 34.24 111.11 29.84
  Q 111.14 26.97 111.30 23.90
  Q 111.37 22.60 110.58 21.55
  Q 109.50 20.11 107.77 19.54
  Q 105.51 18.80 103.22 18.89
  Q 94.61 19.23 85.52 19.09
  C 84.09 19.07 82.75 19.70 81.35 19.61
  A 1.68 1.68 0.0 0 0 79.57 21.39
  Q 79.75 24.21 81.01 26.89
  C 81.79 28.55 81.36 30.55 81.40 32.34
  Q 81.58 40.31 81.65 47.99
  C 81.66 49.37 82.10 50.58 81.53 51.99
  A 1.12 1.11 44.4 0 1 79.47 52.01
  Q 78.62 50.04 78.06 47.89
  Q 77.51 45.76 76.79 43.88
  Q 75.52 40.59 75.14 37.91
  Q 74.96 36.69 74.42 35.88
  Q 73.84 35.00 73.88 33.86
  Q 73.90 33.24 73.41 32.86
  Q 73.04 32.58 73.09 32.10
  Q 73.15 31.55 72.88 31.07
  Q 72.53 30.45 72.34 29.82
  Q 71.21 26.17 70.31 21.90
  A 1.37 1.32 11.8 0 0 69.74 21.06
  Q 69.21 20.69 68.78 20.86"
/>
<path stroke="#e2ce93" vector-effect="non-scaling-stroke" d="
  M 25.60 20.09
  C 14.44 21.40 8.46 29.40 10.39 40.34
  C 11.91 48.98 18.24 54.96 26.94 56.30
  C 31.72 57.04 35.96 56.56 40.60 56.38
  A 0.60 0.60 0.0 0 0 41.15 55.99
  L 44.84 46.34"
/>
<path stroke="#e2ce93" vector-effect="non-scaling-stroke" d="
  M 68.39 20.15
  Q 67.89 20.74 67.25 20.72
  Q 62.81 20.60 58.11 20.74
  Q 57.60 20.76 57.91 21.16
  Q 59.11 22.70 58.45 24.49
  Q 53.58 37.68 48.32 51.27
  Q 47.31 53.87 45.25 54.98
  Q 43.36 56.00 45.51 56.00
  L 53.75 56.00
  Q 55.99 56.00 53.97 55.16
  Q 51.34 54.06 52.33 50.83
  Q 53.96 45.53 56.07 40.39
  Q 56.27 39.91 56.80 39.94
  Q 65.28 40.46 69.47 47.31
  Q 71.39 50.45 70.44 53.74
  Q 70.28 54.29 69.81 54.59
  Q 69.31 54.91 68.82 55.25
  Q 67.71 56.01 69.05 56.01
  L 79.54 56.01
  Q 80.41 56.01 79.72 55.48
  Q 78.03 54.20 77.53 52.76
  Q 72.93 39.51 67.89 25.09
  Q 66.91 22.27 68.78 20.86"
/>
<path stroke="#e2ce93" vector-effect="non-scaling-stroke" d="
  M 40.90 29.74
  Q 36.62 23.33 29.87 22.74
  C 19.00 21.80 14.77 32.30 17.21 41.25"
/>
<path stroke="#e8d499" vector-effect="non-scaling-stroke" d="
  M 291.32 21.75
  Q 293.05 22.87 293.11 25.63
  Q 293.37 38.18 293.06 50.75
  Q 292.97 54.56 290.23 55.35"
/>
<path stroke="#f9f9f9" vector-effect="non-scaling-stroke" d="
  M 290.23 55.35
  Q 289.91 55.64 289.95 56.10
  Q 289.99 56.61 290.45 56.83
  Q 291.47 57.34 292.27 58.07
  Q 292.75 58.50 293.06 59.03
  Q 293.50 59.77 294.50 59.84
  Q 300.21 60.23 305.71 60.00
  Q 308.49 59.88 310.96 59.27
  Q 313.60 58.62 316.14 57.67
  Q 323.81 54.81 325.68 46.57
  Q 327.70 37.63 322.92 27.95
  C 322.32 26.73 321.34 26.14 320.63 25.04
  Q 319.82 23.80 318.59 23.17
  Q 315.58 21.62 312.80 20.72
  C 310.81 20.08 308.92 20.84 306.76 20.40
  Q 298.27 18.68 289.83 19.84
  A 0.83 0.83 0.0 0 0 289.31 21.20
  Q 290.01 22.02 291.32 21.75"
/>
<path stroke="#e2ce93" vector-effect="non-scaling-stroke" d="
  M 290.23 55.35
  L 290.28 55.64
  Q 290.34 55.96 290.67 55.98
  Q 301.77 56.53 310.45 55.78
  C 322.64 54.72 327.23 40.65 321.93 30.86
  C 318.03 23.65 310.60 20.28 302.20 20.72
  Q 296.68 21.01 291.40 20.66
  Q 290.78 20.62 290.87 21.23
  Q 290.91 21.53 291.32 21.75"
/>
<path stroke="#e8d499" vector-effect="non-scaling-stroke" d="
  M 379.38 55.96
  Q 379.69 55.79 379.65 55.59
  Q 379.61 55.39 379.43 55.31
  Q 377.42 54.44 377.40 52.32
  Q 377.35 43.46 377.43 34.84
  Q 377.44 33.31 378.76 32.72
  Q 380.68 31.86 378.58 31.81
  Q 374.27 31.70 369.45 31.74
  Q 367.77 31.76 369.21 32.63
  C 371.32 33.90 371.20 35.73 371.24 37.98
  Q 371.36 43.73 371.23 49.57
  C 371.21 50.89 370.43 52.94 369.03 53.16
  Q 357.53 54.96 352.55 45.19"
/>
<path stroke="#f9f9f9" vector-effect="non-scaling-stroke" d="
  M 352.55 45.19
  Q 351.01 40.09 351.36 35.81
  Q 351.38 35.57 351.59 35.45
  Q 351.71 35.38 351.83 35.29
  Q 352.29 34.96 352.32 34.39
  C 352.38 33.06 352.57 31.73 353.50 30.69
  Q 354.32 29.78 354.99 28.84
  Q 356.64 26.52 360.31 26.01
  Q 362.80 25.66 367.90 27.17
  A 1.67 1.65 80.0 0 1 368.76 27.78
  Q 369.72 29.08 371.44 28.58
  Q 372.11 28.39 372.48 28.96
  Q 372.92 29.64 373.74 29.59
  Q 374.10 29.57 374.04 29.24"
/>
<path stroke="#e8d499" vector-effect="non-scaling-stroke" d="
  M 374.04 29.24
  L 372.43 20.69
  Q 372.27 19.83 371.50 20.25
  L 370.68 20.71
  Q 370.20 20.98 369.66 20.86
  Q 364.14 19.70 358.80 20.08"
/>
<path stroke="#f9f9f9" vector-effect="non-scaling-stroke" d="
  M 358.80 20.08
  C 356.89 20.00 355.13 19.33 353.41 19.67
  Q 350.51 20.22 348.31 22.06
  Q 347.92 22.38 347.44 22.51
  Q 346.39 22.79 345.82 23.78
  Q 342.90 28.82 342.34 33.22
  Q 341.70 38.16 342.55 43.83
  Q 343.04 47.11 344.85 50.09
  Q 347.21 54.00 349.44 55.66
  Q 353.48 58.67 356.51 58.99
  Q 360.50 59.42 364.45 59.88
  Q 367.17 60.19 369.54 60.02
  Q 373.36 59.75 374.62 59.39
  Q 376.59 58.83 377.85 58.84
  A 1.08 1.08 0.0 0 0 378.67 58.49
  Q 379.83 57.20 379.38 55.96"
/>
<path stroke="#e2ce93" vector-effect="non-scaling-stroke" d="
  M 358.80 20.08
  C 350.03 21.17 343.77 27.10 343.68 35.93
  Q 343.61 42.17 346.05 46.19
  Q 350.71 53.86 357.73 55.35
  Q 365.63 57.03 379.38 55.96"
/>
<path stroke="#e2ce93" vector-effect="non-scaling-stroke" d="
  M 374.04 29.24
  Q 373.88 29.27 373.74 29.24
  A 0.41 0.41 0.0 0 1 373.46 29.03
  C 371.34 25.16 367.05 22.72 362.67 22.74
  Q 350.92 22.78 350.10 35.24
  Q 349.76 40.27 352.55 45.19"
/>
<path stroke="#e8d499" vector-effect="non-scaling-stroke" d="
  M 384.59 21.47
  Q 386.74 22.43 386.75 24.76
  Q 386.80 37.78 386.88 50.75
  Q 386.91 54.21 384.72 55.12
  Q 382.78 55.92 384.87 56.07
  Q 390.06 56.46 396.12 55.71"
/>
<path stroke="#f9f9f9" vector-effect="non-scaling-stroke" d="
  M 396.12 55.71
  Q 395.95 55.04 395.88 54.57
  Q 395.81 53.99 395.64 53.46
  Q 394.93 51.25 395.13 49.20
  Q 395.57 44.74 395.83 40.04
  Q 396.01 36.82 397.05 34.24
  Q 397.24 33.76 397.70 33.53
  Q 401.62 31.51 404.99 28.75
  A 0.88 0.88 0.0 0 1 406.35 29.06
  C 406.76 29.96 407.18 30.87 407.13 31.88
  Q 406.69 42.45 407.00 52.15
  Q 407.05 53.86 406.49 55.32
  A 1.18 1.17 42.1 0 0 406.54 56.26
  C 407.43 58.03 408.63 60.29 411.12 59.85
  Q 413.48 59.43 416.21 58.98
  Q 417.64 58.75 418.54 57.71
  Q 420.18 55.80 419.25 53.59
  Q 418.47 51.74 418.66 49.52
  Q 418.79 48.02 418.71 46.53
  Q 418.50 42.75 418.95 38.85
  C 419.30 35.81 418.84 33.25 418.35 30.33
  Q 418.09 28.81 419.57 28.14
  A 1.61 1.59 -41.6 0 1 421.04 28.22
  Q 422.79 29.25 424.17 30.76
  Q 425.22 31.91 426.80 32.13
  Q 429.00 32.43 430.68 31.42
  Q 431.19 31.11 431.08 30.53
  L 429.42 21.25
  Q 429.31 20.63 428.74 20.35
  C 425.09 18.56 420.60 19.72 416.80 19.60
  Q 413.24 19.48 409.71 19.57
  Q 404.69 19.71 399.42 19.61
  Q 399.16 19.60 398.94 19.46
  Q 398.69 19.30 398.57 19.52
  Q 398.37 19.88 397.96 19.87
  L 383.85 19.57
  A 0.89 0.88 -88.7 0 0 382.95 20.44
  Q 382.90 22.13 384.59 21.47"
/>
<path stroke="#e2ce93" vector-effect="non-scaling-stroke" d="
  M 396.12 55.71
  Q 392.94 54.43 392.86 49.98
  Q 392.67 38.89 392.86 27.17
  C 392.90 24.91 392.82 23.17 394.54 21.64
  Q 395.43 20.84 394.24 20.82
  L 385.02 20.69
  Q 384.60 20.69 384.47 21.09
  Q 384.41 21.30 384.59 21.47"
/>
<path stroke="#e8d499" vector-effect="non-scaling-stroke" d="
  M 488.97 54.97
  Q 490.69 49.28 492.74 43.66
  Q 492.80 43.50 492.67 43.40
  Q 492.62 43.36 492.57 43.36
  Q 492.18 43.36 492.01 43.70
  C 489.05 49.39 484.60 52.84 477.94 53.51
  Q 473.10 54.00 473.09 49.26
  Q 473.05 37.25 473.09 25.24
  Q 473.09 23.07 474.67 21.75"
/>
<path stroke="#f9f9f9" vector-effect="non-scaling-stroke" d="
  M 474.67 21.75
  Q 476.14 21.66 476.27 20.81
  Q 476.34 20.36 475.90 20.26
  Q 469.70 18.88 463.83 19.81
  Q 462.95 19.95 462.93 20.83
  Q 462.80 24.88 464.14 28.27
  C 464.75 29.82 464.80 31.59 464.96 33.25
  Q 465.12 34.96 464.92 36.83
  Q 464.14 43.92 464.51 50.92
  Q 464.55 51.65 464.24 52.01
  Q 463.77 52.54 463.04 52.41
  Q 462.51 52.31 462.27 51.82
  Q 460.92 49.04 460.67 46.05
  Q 460.63 45.58 460.29 45.26
  Q 459.55 44.55 459.63 43.54
  Q 459.68 43.00 459.43 42.52
  Q 458.92 41.54 458.80 40.41
  A 2.06 2.03 -69.3 0 0 458.29 39.26
  Q 457.49 38.36 457.35 37.07
  Q 457.18 35.56 456.40 34.06
  Q 455.77 32.83 455.44 31.01
  Q 455.05 28.90 454.39 26.92
  Q 453.75 24.97 453.53 22.58
  Q 453.37 20.91 452.26 20.22
  C 449.71 18.65 442.62 19.38 439.81 19.64
  A 0.79 0.78 1.4 0 0 439.11 20.30
  C 438.85 22.10 438.57 24.21 437.78 25.84
  Q 437.35 26.73 437.20 27.75
  Q 436.98 29.20 436.38 30.70
  Q 433.82 37.11 431.62 43.41
  Q 429.43 49.67 428.00 52.06
  Q 427.09 53.57 426.52 55.01
  Q 426.36 55.42 426.03 55.70
  Q 425.48 56.17 425.78 56.86
  C 426.86 59.35 428.56 60.39 431.22 60.25
  Q 433.66 60.13 436.27 60.50
  Q 436.79 60.57 437.17 60.22
  Q 438.98 58.50 439.21 56.09
  Q 439.49 53.01 439.65 49.89
  Q 439.73 48.22 440.88 47.06
  Q 442.12 45.81 443.82 45.80
  Q 445.28 45.79 446.32 46.86
  Q 448.39 48.99 449.90 51.08
  A 1.13 1.13 0.0 0 1 450.08 52.00
  Q 449.38 54.95 449.87 57.81
  Q 449.99 58.53 450.44 59.01
  C 451.26 59.90 451.90 60.40 453.19 60.41
  C 456.84 60.45 460.27 60.11 463.88 60.22
  Q 466.36 60.30 468.80 59.89
  C 474.81 58.87 480.99 60.42 486.85 59.23
  A 1.38 1.31 -74.0 0 0 487.58 58.80
  Q 488.27 58.05 488.34 57.12
  Q 488.37 56.69 488.70 56.43
  Q 489.29 55.98 488.97 54.97"
/>
<path stroke="#e2ce93" vector-effect="non-scaling-stroke" d="
  M 474.67 21.75
  Q 474.94 21.58 474.89 21.29
  Q 474.82 20.94 474.46 20.93
  L 465.24 20.69
  Q 464.33 20.67 464.90 21.39
  Q 465.23 21.80 465.70 22.09
  Q 466.28 22.45 466.50 23.10
  Q 467.08 24.80 467.10 26.63
  Q 467.22 38.20 467.05 50.99
  Q 467.00 54.49 464.17 55.23
  Q 463.52 55.40 464.07 55.78
  Q 464.39 56.00 464.76 55.99
  Q 476.86 55.93 487.46 56.26
  Q 488.16 56.28 488.45 55.96
  Q 488.78 55.62 488.97 54.97"
/>
<path stroke="#e8d499" vector-effect="non-scaling-stroke" d="
  M 328.46 20.59
  Q 330.69 23.30 330.73 24.75
  Q 331.06 37.13 330.65 52.02
  Q 330.59 54.06 328.86 54.98
  Q 326.99 55.98 329.10 56.14
  Q 334.24 56.53 339.42 55.94
  Q 340.43 55.83 339.52 55.37
  Q 336.81 54.02 336.80 50.75
  Q 336.74 37.51 336.88 25.25
  Q 336.91 22.90 338.51 21.74"
/>
<path stroke="#f9f9f9" vector-effect="non-scaling-stroke" d="
  M 338.51 21.74
  Q 339.50 22.17 339.95 21.04
  A 0.58 0.58 0.0 0 0 339.39 20.25
  L 328.46 20.59"
/>
<path stroke="#e2ce93" vector-effect="non-scaling-stroke" d="
  M 338.51 21.74
  Q 338.87 21.24 337.74 21.19
  Q 334.18 21.04 328.46 20.59"
/>
<path stroke="#e2ce93" vector-effect="non-scaling-stroke" d="
  M 166.89 17.08
  Q 169.74 15.93 172.91 14.33
  C 177.50 12.01 173.10 7.04 170.31 10.81
  C 168.94 12.66 167.47 14.36 166.27 16.35
  Q 165.50 17.64 166.89 17.08"
/>
<path stroke="#e2ce93" vector-effect="non-scaling-stroke" d="
  M 187.95 20.74
  A 0.27 0.27 0.0 0 0 187.77 21.21
  Q 189.93 23.03 189.95 26.26
  Q 190.05 39.44 189.86 51.82
  Q 189.83 54.05 188.09 54.82
  Q 185.83 55.82 188.30 55.93
  Q 193.28 56.14 198.08 55.95
  Q 199.65 55.88 198.23 55.21
  Q 196.06 54.17 195.99 51.31
  Q 195.84 45.35 195.96 40.26
  Q 195.98 39.69 196.52 39.53
  C 202.00 37.90 213.66 34.29 214.60 27.47
  C 215.26 22.60 211.14 20.70 206.91 20.83
  Q 197.19 21.10 187.95 20.74"
/>
<path stroke="#e2ce93" vector-effect="non-scaling-stroke" d="
  M 270.0380 39.6872
  A 19.12 18.52 3.8 0 0 252.1874 19.9407
  A 19.12 18.52 3.8 0 0 231.8820 37.1528
  A 19.12 18.52 3.8 0 0 249.7326 56.8993
  A 19.12 18.52 3.8 0 0 270.0380 39.6872"
/>
<path stroke="#e2ce93" vector-effect="non-scaling-stroke" d="
  M 102.05 35.31
  A 0.41 0.41 0.0 0 1 102.19 34.69
  Q 105.39 33.07 107.46 30.89
  C 109.26 29.00 110.32 24.41 107.90 22.40
  Q 106.04 20.87 103.42 20.88
  Q 94.39 20.93 83.46 20.90
  Q 81.65 20.89 83.05 22.03
  Q 84.30 23.04 84.31 25.50
  Q 84.40 38.11 84.33 51.25
  Q 84.31 54.21 82.03 55.04
  Q 80.11 55.74 82.14 55.87
  Q 88.24 56.25 93.14 55.84
  Q 94.21 55.75 93.20 55.41
  Q 90.50 54.49 90.38 51.39
  Q 90.17 45.82 90.31 40.01
  Q 90.32 39.32 90.98 39.10
  L 96.22 37.34
  A 0.88 0.88 0.0 0 1 97.16 37.61
  C 100.33 41.45 105.52 48.88 105.22 54.03
  Q 105.18 54.58 104.71 54.85
  L 104.32 55.07
  Q 102.70 55.98 104.56 55.98
  Q 118.73 56.00 131.74 56.04
  C 153.57 56.10 153.88 26.97 134.68 21.53
  Q 131.33 20.58 125.50 20.80
  Q 121.03 20.96 116.32 20.85
  Q 115.22 20.82 115.97 21.62
  Q 117.88 23.66 117.80 26.58
  Q 117.49 38.49 117.72 50.45
  C 117.81 55.10 113.47 57.42 111.55 52.21
  Q 108.18 43.09 102.05 35.31"
/>
<path stroke="#e2ce93" vector-effect="non-scaling-stroke" d="
  M 416.45 23.48
  Q 424.74 23.53 428.05 29.56
  Q 429.13 31.53 428.58 29.35
  L 426.62 21.58
  A 1.07 1.06 83.0 0 0 425.59 20.77
  L 399.66 20.67
  Q 399.19 20.67 399.06 21.12
  Q 397.74 25.71 396.92 30.07
  Q 396.76 30.88 397.14 30.15
  Q 400.78 23.16 409.22 23.59
  Q 409.78 23.62 409.78 24.18
  Q 409.79 37.47 409.72 49.83
  C 409.70 51.62 409.97 53.83 408.23 54.83
  Q 406.24 55.97 408.54 56.08
  Q 413.27 56.32 417.87 55.94
  Q 419.71 55.79 417.95 55.22
  L 417.54 55.09
  Q 416.99 54.91 416.73 54.39
  Q 415.76 52.47 415.76 50.06
  Q 415.78 36.45 415.76 24.17
  Q 415.76 23.48 416.45 23.48"
/>
<path stroke="#e2ce93" vector-effect="non-scaling-stroke" d="
  M 439.80 39.99
  C 446.25 39.94 452.40 44.60 453.71 50.68
  Q 454.38 53.78 452.00 55.19
  Q 450.62 56.01 452.22 56.01
  L 462.50 56.01
  Q 464.11 56.01 462.70 55.22
  Q 461.08 54.31 460.48 52.57
  Q 455.71 38.90 450.60 24.23
  Q 450.11 22.82 450.88 21.73
  A 0.53 0.52 -72.0 0 0 450.46 20.90
  L 441.25 20.73
  Q 440.19 20.72 440.96 21.45
  Q 442.17 22.61 441.47 24.51
  Q 436.79 37.11 432.09 49.23
  C 431.12 51.73 430.38 53.88 428.03 55.14
  Q 426.44 56.00 428.25 56.00
  L 436.72 56.01
  Q 438.63 56.01 436.91 55.17
  Q 434.41 53.96 435.30 51.01
  Q 436.78 46.12 438.94 40.58
  Q 439.17 39.99 439.80 39.99"
/>
<path stroke="#e8d499" vector-effect="non-scaling-stroke" d="
  M 238.52 39.53
  A 15.85 12.41 76.8 0 0 244.15 50.58
  A 15.86 12.42 76.5 0 0 255.04 53.65
  A 15.83 12.40 76.6 0 0 261.80 47.75"
/>
<path stroke="#e2ce93" vector-effect="non-scaling-stroke" d="
  M 261.80 47.75
  A 15.84 12.41 76.7 0 0 261.59 31.47
  A 15.82 12.40 76.6 0 0 253.19 23.34
  A 15.85 12.42 76.6 0 0 241.61 26.58
  A 15.82 12.42 76.7 0 0 238.52 39.53"
/>
<path stroke="#f9f9f9" vector-effect="non-scaling-stroke" d="
  M 261.80 47.75
  Q 261.49 47.09 261.57 46.13
  Q 261.61 45.63 261.22 45.31
  Q 260.78 44.96 261.06 44.45
  Q 261.14 44.30 261.11 44.13
  Q 261.04 43.84 260.75 43.71
  A 0.51 0.51 0.0 0 1 260.45 43.20
  Q 260.61 41.10 260.87 39.00
  Q 261.15 36.70 259.95 34.41
  Q 259.35 33.26 259.06 32.06
  Q 258.73 30.66 257.59 29.82
  Q 256.73 29.18 255.94 28.40
  Q 255.61 28.08 255.18 27.98
  Q 253.39 27.57 251.82 26.66
  C 249.78 25.48 247.10 26.16 245.21 27.38
  Q 244.36 27.93 243.84 28.76
  Q 243.24 29.71 242.28 30.25
  Q 241.95 30.44 241.86 30.82
  Q 241.50 32.34 240.04 33.23
  A 2.46 2.44 76.6 0 0 238.89 35.12
  L 238.52 39.53"
/>
<path stroke="#e2ce93" vector-effect="non-scaling-stroke" d="
  M 57.11 36.89
  Q 56.84 37.58 57.58 37.62
  Q 62.78 37.90 66.87 40.83
  Q 67.63 41.37 67.32 40.49
  L 62.10 25.52
  Q 61.78 24.59 61.43 25.51
  L 57.11 36.89"
/>
<path stroke="#e2ce93" vector-effect="non-scaling-stroke" d="
  M 103.34 28.88
  C 104.32 26.80 103.05 24.09 100.77 23.43
  Q 97.18 22.38 92.87 23.25
  Q 90.30 23.76 90.27 26.39
  Q 90.20 31.24 90.31 36.13
  Q 90.32 36.74 90.91 36.59
  C 94.88 35.58 101.43 32.90 103.34 28.88"
/>
<path stroke="#e8d499" vector-effect="non-scaling-stroke" d="
  M 123.75 34.64
  Q 123.58 40.83 123.54 47.25
  Q 123.52 50.53 124.34 51.87
  Q 125.09 53.09 126.48 53.29
  Q 136.09 54.62 140.57 47.53"
/>
<path stroke="#e2ce93" vector-effect="non-scaling-stroke" d="
  M 140.57 47.53
  Q 144.35 38.25 139.83 30.21
  Q 136.07 23.54 127.55 22.95
  C 125.35 22.80 123.67 23.93 123.60 26.25
  Q 123.48 30.33 123.75 34.64"
/>
<path stroke="#f9f9f9" vector-effect="non-scaling-stroke" d="
  M 140.57 47.53
  L 141.44 42.87
  Q 141.53 42.39 141.47 41.91
  Q 141.23 39.94 141.40 38.07
  A 1.38 1.35 -68.6 0 0 140.90 36.89
  Q 139.64 35.88 139.29 34.57
  Q 138.91 33.14 138.02 31.84
  Q 137.19 30.63 136.28 29.36
  Q 136.00 28.96 135.53 28.85
  Q 134.17 28.54 133.13 27.66
  A 0.34 0.32 -15.6 0 0 132.96 27.57
  L 126.96 25.97
  Q 126.64 25.89 126.53 26.20
  Q 126.29 26.86 125.97 26.85
  Q 125.40 26.84 125.17 27.37
  Q 123.82 30.42 123.75 34.64"
/>
<path stroke="#e2ce93" vector-effect="non-scaling-stroke" d="
  M 163.06 37.57
  C 166.44 37.82 169.68 38.86 172.33 40.81
  Q 173.11 41.38 172.79 40.47
  L 167.65 25.75
  Q 167.29 24.69 166.88 25.74
  L 162.63 36.89
  Q 162.38 37.52 163.06 37.57"
/>
<path stroke="#e2ce93" vector-effect="non-scaling-stroke" d="
  M 196.56 36.85
  Q 202.15 35.29 206.08 32.26
  C 209.94 29.29 209.73 24.27 204.21 23.21
  C 201.59 22.70 196.09 22.32 195.97 26.16
  Q 195.80 31.24 195.89 36.34
  Q 195.90 37.03 196.56 36.85"
/>
<path stroke="#e8d499" vector-effect="non-scaling-stroke" d="
  M 306.00 53.41
  C 316.27 52.81 319.42 43.05 316.98 34.50
  Q 313.84 23.45 302.77 22.96
  C 300.95 22.88 299.21 23.92 299.17 25.91
  Q 298.95 37.30 299.17 49.48
  C 299.24 53.73 302.96 53.59 306.00 53.41"
/>
<path stroke="#e2ce93" vector-effect="non-scaling-stroke" d="
  M 450.32 40.46
  L 445.05 25.53
  Q 444.76 24.71 444.45 25.52
  L 440.04 37.02
  A 0.43 0.43 0.0 0 0 440.41 37.60
  Q 445.92 37.93 449.83 40.83
  Q 450.67 41.46 450.32 40.46"
/>
</g>
<path fill="#ffffff" d="
  M 0.00 0.00
  L 500.00 0.00
  L 500.00 78.00
  L 0.00 78.00
  L 0.00 0.00
  Z
  M 152.71 53.50
  Q 151.45 54.73 149.90 55.42
  L 149.52 55.92
  Q 149.21 56.33 149.43 56.80
  Q 150.24 58.52 152.08 59.72
  Q 152.76 60.17 153.57 60.04
  L 159.66 59.03
  Q 160.29 58.93 160.53 58.35
  Q 160.87 57.53 161.51 56.95
  Q 161.91 56.58 161.94 56.05
  Q 162.03 54.42 161.33 53.24
  Q 161.02 52.71 161.12 52.12
  Q 161.34 50.73 161.46 49.25
  Q 161.58 47.83 162.28 46.90
  C 163.60 45.17 166.02 44.92 167.82 46.12
  C 169.10 46.97 170.44 47.33 171.31 48.69
  Q 173.10 51.48 172.56 54.23
  Q 172.18 56.17 172.86 58.33
  A 1.58 1.57 -83.5 0 0 173.57 59.23
  C 176.30 60.88 178.16 59.57 180.89 59.58
  Q 182.74 59.58 184.64 59.94
  Q 189.93 60.95 196.18 59.27
  Q 200.62 58.07 200.10 54.04
  Q 200.07 53.84 199.93 53.69
  Q 199.79 53.54 199.62 53.41
  Q 199.27 53.13 199.25 52.67
  L 199.08 46.46
  A 2.83 2.82 -4.1 0 1 201.58 43.58
  Q 203.00 43.42 204.01 42.44
  A 1.48 1.45 -65.8 0 1 205.11 42.01
  Q 205.90 42.05 206.36 41.50
  Q 206.65 41.15 207.09 41.02
  Q 209.59 40.25 211.75 38.47
  C 213.09 37.36 213.01 35.60 215.00 35.22
  Q 215.29 35.17 215.53 35.34
  Q 216.86 36.34 216.56 38.03
  Q 215.38 44.61 215.64 52.00
  Q 215.66 52.47 215.42 52.87
  Q 213.42 56.12 216.16 58.99
  Q 217.70 60.59 219.38 60.12
  Q 222.15 59.33 225.00 58.87
  Q 225.49 58.80 225.90 58.50
  Q 226.37 58.16 226.87 57.89
  Q 227.29 57.67 227.36 57.21
  Q 227.46 56.53 228.35 55.86
  Q 225.65 54.46 225.17 51.51
  Q 225.15 51.37 225.10 46.47
  Q 225.01 35.86 225.17 25.25
  Q 225.20 23.11 226.42 22.00
  Q 228.10 22.19 228.67 21.18
  Q 228.95 20.69 228.56 20.28
  Q 226.34 18.00 222.88 18.58
  Q 217.06 19.55 212.03 19.16
  Q 208.00 18.84 203.90 18.87
  C 198.05 18.93 192.69 19.00 186.79 19.72
  A 0.68 0.67 89.5 0 0 186.20 20.33
  Q 185.91 23.37 186.46 25.88
  Q 187.31 29.78 187.33 31.27
  Q 187.40 36.83 187.19 41.93
  C 187.05 45.46 187.43 48.93 187.24 52.44
  A 0.92 0.91 -79.8 0 1 186.05 53.27
  Q 185.03 52.95 184.69 51.92
  Q 183.67 48.80 182.71 45.04
  Q 182.39 43.83 181.80 42.74
  Q 181.20 41.61 181.05 40.23
  Q 180.90 38.72 180.24 37.41
  Q 179.21 35.36 178.81 33.09
  Q 178.63 32.08 178.09 31.03
  Q 177.49 29.86 177.08 28.61
  C 176.70 27.49 177.21 26.37 176.46 25.45
  Q 176.15 25.07 176.20 24.58
  C 176.53 21.47 175.73 19.01 176.88 15.86
  Q 177.60 13.90 177.37 12.18
  Q 176.98 9.22 173.87 8.07
  Q 172.78 7.67 171.45 7.95
  Q 170.18 8.21 169.26 8.95
  C 167.12 10.66 164.05 13.99 163.27 16.90
  Q 162.99 17.98 162.40 18.82
  Q 160.20 22.00 160.52 26.11
  Q 160.54 26.47 160.23 26.70
  Q 159.83 26.98 159.72 27.45
  C 159.37 28.94 159.16 30.40 158.66 31.83
  Q 156.24 38.88 154.00 45.99
  Q 152.45 50.94 152.71 53.50
  Z
  M 268.64 52.12
  Q 270.42 49.67 270.87 47.31
  Q 271.31 44.96 271.91 42.59
  Q 272.52 40.18 272.25 37.87
  Q 271.85 34.48 271.07 31.33
  Q 270.27 28.11 268.24 25.69
  Q 265.36 22.27 261.57 20.42
  Q 256.42 17.90 251.83 19.07
  Q 250.79 19.33 249.61 19.12
  Q 244.90 18.29 240.48 20.58
  Q 235.76 23.03 233.51 26.76
  Q 231.44 30.17 230.18 35.43
  Q 229.39 38.74 229.72 41.83
  Q 230.32 47.43 232.25 50.27
  Q 234.44 53.48 237.69 56.32
  Q 240.93 59.16 245.02 59.98
  Q 256.21 62.21 264.78 56.04
  Q 266.90 54.50 268.64 52.12
  Z
  M 68.78 20.86
  Q 68.41 20.43 68.39 20.15
  Q 66.96 19.40 65.49 19.32
  Q 61.65 19.12 57.33 19.91
  Q 56.77 20.01 56.60 20.56
  Q 56.49 20.92 56.12 21.02
  Q 55.60 21.15 55.53 21.68
  Q 54.76 27.25 53.45 30.49
  Q 52.55 32.72 51.74 34.97
  Q 50.92 37.23 50.02 39.43
  Q 49.23 41.37 48.44 43.98
  Q 47.37 47.53 44.84 46.34
  Q 44.83 46.07 44.70 45.90
  Q 44.44 45.56 44.26 45.95
  C 41.11 52.68 34.96 55.44 27.87 53.13
  Q 19.79 50.50 17.21 41.25
  Q 17.32 39.41 17.18 37.51
  C 17.05 35.72 17.81 34.66 18.37 33.11
  Q 18.81 31.89 19.73 30.85
  Q 20.63 29.84 21.38 28.76
  C 23.46 25.77 27.54 26.11 30.81 26.70
  Q 33.62 27.20 35.76 28.87
  Q 35.82 28.92 36.83 30.09
  Q 38.33 31.82 40.90 29.74
  L 38.73 20.78
  Q 38.59 20.23 38.03 20.23
  L 25.60 20.09
  Q 24.08 20.24 23.15 19.83
  Q 21.89 19.30 20.72 19.92
  Q 20.33 20.14 19.88 20.12
  Q 17.23 20.05 15.30 21.50
  Q 12.84 23.36 10.28 26.33
  C 9.16 27.63 9.24 28.87 8.45 30.26
  Q 7.64 31.68 7.47 33.30
  Q 6.54 42.36 10.77 49.28
  Q 11.50 50.49 12.44 51.46
  C 14.07 53.15 15.34 55.02 17.28 56.38
  C 23.50 60.74 29.85 60.49 37.19 60.60
  Q 39.76 60.64 42.18 60.13
  Q 44.53 59.64 47.25 60.58
  C 48.57 61.04 49.93 60.83 51.33 60.93
  Q 52.95 61.05 54.19 60.13
  Q 56.28 58.60 56.60 55.57
  Q 56.69 54.76 56.35 53.98
  Q 55.63 52.32 56.48 50.63
  Q 56.67 50.24 56.63 49.81
  Q 56.40 47.30 58.48 45.67
  A 1.64 1.64 0.0 0 1 59.69 45.35
  Q 62.54 45.73 65.26 47.71
  Q 66.78 48.82 67.12 50.79
  Q 67.47 52.76 67.51 54.66
  Q 67.51 54.96 67.76 55.14
  Q 68.07 55.37 67.89 55.74
  C 66.44 58.86 69.15 60.58 71.78 59.96
  C 74.11 59.40 76.39 59.09 78.72 59.58
  Q 85.91 61.09 93.54 58.42
  A 1.14 1.12 -87.4 0 0 94.21 57.80
  Q 95.20 55.49 93.81 53.12
  Q 93.61 52.78 93.56 52.38
  L 92.79 45.25
  A 2.36 0.35 -84.3 0 1 92.76 44.61
  Q 92.78 41.96 94.45 41.84
  A 0.69 0.67 65.6 0 1 95.01 42.06
  C 96.58 43.80 98.46 43.77 99.68 46.13
  Q 101.78 50.21 101.68 54.77
  Q 101.66 55.26 101.90 55.69
  Q 102.20 56.26 102.13 56.92
  Q 102.07 57.48 102.38 57.95
  C 103.32 59.38 104.78 60.33 106.53 59.98
  Q 110.47 59.18 114.69 59.83
  C 118.32 60.39 121.82 59.13 125.46 59.58
  Q 130.19 60.18 133.96 59.79
  Q 137.69 59.41 141.79 57.36
  Q 145.33 55.59 147.65 51.67
  Q 150.37 47.05 151.19 43.25
  C 151.71 40.80 151.65 36.26 150.30 33.55
  Q 149.46 31.86 148.86 30.17
  Q 148.52 29.25 147.95 28.40
  C 146.99 26.98 146.39 25.69 144.98 24.64
  Q 142.59 22.86 140.05 21.44
  C 137.92 20.24 135.45 20.41 133.12 19.88
  Q 132.69 19.78 132.51 20.17
  Q 132.35 20.50 132.00 20.36
  Q 131.01 19.97 130.11 19.67
  C 128.67 19.19 127.39 19.51 125.97 19.14
  Q 125.00 18.89 123.95 18.85
  Q 118.61 18.64 113.98 19.53
  A 0.67 0.67 0.0 0 0 113.45 20.36
  C 114.24 23.58 115.22 26.45 115.13 29.93
  Q 114.89 39.79 114.97 49.49
  Q 114.98 49.98 115.29 50.36
  Q 115.89 51.07 115.39 51.78
  A 1.36 1.36 0.0 0 1 112.96 51.36
  Q 112.16 48.38 110.73 45.68
  Q 108.73 41.88 106.68 38.49
  A 1.94 1.94 0.0 0 1 107.58 35.70
  Q 111.04 34.24 111.11 29.84
  Q 111.14 26.97 111.30 23.90
  Q 111.37 22.60 110.58 21.55
  Q 109.50 20.11 107.77 19.54
  Q 105.51 18.80 103.22 18.89
  Q 94.61 19.23 85.52 19.09
  C 84.09 19.07 82.75 19.70 81.35 19.61
  A 1.68 1.68 0.0 0 0 79.57 21.39
  Q 79.75 24.21 81.01 26.89
  C 81.79 28.55 81.36 30.55 81.40 32.34
  Q 81.58 40.31 81.65 47.99
  C 81.66 49.37 82.10 50.58 81.53 51.99
  A 1.12 1.11 44.4 0 1 79.47 52.01
  Q 78.62 50.04 78.06 47.89
  Q 77.51 45.76 76.79 43.88
  Q 75.52 40.59 75.14 37.91
  Q 74.96 36.69 74.42 35.88
  Q 73.84 35.00 73.88 33.86
  Q 73.90 33.24 73.41 32.86
  Q 73.04 32.58 73.09 32.10
  Q 73.15 31.55 72.88 31.07
  Q 72.53 30.45 72.34 29.82
  Q 71.21 26.17 70.31 21.90
  A 1.37 1.32 11.8 0 0 69.74 21.06
  Q 69.21 20.69 68.78 20.86
  Z
  M 291.32 21.75
  Q 293.05 22.87 293.11 25.63
  Q 293.37 38.18 293.06 50.75
  Q 292.97 54.56 290.23 55.35
  Q 289.91 55.64 289.95 56.10
  Q 289.99 56.61 290.45 56.83
  Q 291.47 57.34 292.27 58.07
  Q 292.75 58.50 293.06 59.03
  Q 293.50 59.77 294.50 59.84
  Q 300.21 60.23 305.71 60.00
  Q 308.49 59.88 310.96 59.27
  Q 313.60 58.62 316.14 57.67
  Q 323.81 54.81 325.68 46.57
  Q 327.70 37.63 322.92 27.95
  C 322.32 26.73 321.34 26.14 320.63 25.04
  Q 319.82 23.80 318.59 23.17
  Q 315.58 21.62 312.80 20.72
  C 310.81 20.08 308.92 20.84 306.76 20.40
  Q 298.27 18.68 289.83 19.84
  A 0.83 0.83 0.0 0 0 289.31 21.20
  Q 290.01 22.02 291.32 21.75
  Z
  M 379.38 55.96
  Q 379.69 55.79 379.65 55.59
  Q 379.61 55.39 379.43 55.31
  Q 377.42 54.44 377.40 52.32
  Q 377.35 43.46 377.43 34.84
  Q 377.44 33.31 378.76 32.72
  Q 380.68 31.86 378.58 31.81
  Q 374.27 31.70 369.45 31.74
  Q 367.77 31.76 369.21 32.63
  C 371.32 33.90 371.20 35.73 371.24 37.98
  Q 371.36 43.73 371.23 49.57
  C 371.21 50.89 370.43 52.94 369.03 53.16
  Q 357.53 54.96 352.55 45.19
  Q 351.01 40.09 351.36 35.81
  Q 351.38 35.57 351.59 35.45
  Q 351.71 35.38 351.83 35.29
  Q 352.29 34.96 352.32 34.39
  C 352.38 33.06 352.57 31.73 353.50 30.69
  Q 354.32 29.78 354.99 28.84
  Q 356.64 26.52 360.31 26.01
  Q 362.80 25.66 367.90 27.17
  A 1.67 1.65 80.0 0 1 368.76 27.78
  Q 369.72 29.08 371.44 28.58
  Q 372.11 28.39 372.48 28.96
  Q 372.92 29.64 373.74 29.59
  Q 374.10 29.57 374.04 29.24
  L 372.43 20.69
  Q 372.27 19.83 371.50 20.25
  L 370.68 20.71
  Q 370.20 20.98 369.66 20.86
  Q 364.14 19.70 358.80 20.08
  C 356.89 20.00 355.13 19.33 353.41 19.67
  Q 350.51 20.22 348.31 22.06
  Q 347.92 22.38 347.44 22.51
  Q 346.39 22.79 345.82 23.78
  Q 342.90 28.82 342.34 33.22
  Q 341.70 38.16 342.55 43.83
  Q 343.04 47.11 344.85 50.09
  Q 347.21 54.00 349.44 55.66
  Q 353.48 58.67 356.51 58.99
  Q 360.50 59.42 364.45 59.88
  Q 367.17 60.19 369.54 60.02
  Q 373.36 59.75 374.62 59.39
  Q 376.59 58.83 377.85 58.84
  A 1.08 1.08 0.0 0 0 378.67 58.49
  Q 379.83 57.20 379.38 55.96
  Z
  M 384.59 21.47
  Q 386.74 22.43 386.75 24.76
  Q 386.80 37.78 386.88 50.75
  Q 386.91 54.21 384.72 55.12
  Q 382.78 55.92 384.87 56.07
  Q 390.06 56.46 396.12 55.71
  Q 395.95 55.04 395.88 54.57
  Q 395.81 53.99 395.64 53.46
  Q 394.93 51.25 395.13 49.20
  Q 395.57 44.74 395.83 40.04
  Q 396.01 36.82 397.05 34.24
  Q 397.24 33.76 397.70 33.53
  Q 401.62 31.51 404.99 28.75
  A 0.88 0.88 0.0 0 1 406.35 29.06
  C 406.76 29.96 407.18 30.87 407.13 31.88
  Q 406.69 42.45 407.00 52.15
  Q 407.05 53.86 406.49 55.32
  A 1.18 1.17 42.1 0 0 406.54 56.26
  C 407.43 58.03 408.63 60.29 411.12 59.85
  Q 413.48 59.43 416.21 58.98
  Q 417.64 58.75 418.54 57.71
  Q 420.18 55.80 419.25 53.59
  Q 418.47 51.74 418.66 49.52
  Q 418.79 48.02 418.71 46.53
  Q 418.50 42.75 418.95 38.85
  C 419.30 35.81 418.84 33.25 418.35 30.33
  Q 418.09 28.81 419.57 28.14
  A 1.61 1.59 -41.6 0 1 421.04 28.22
  Q 422.79 29.25 424.17 30.76
  Q 425.22 31.91 426.80 32.13
  Q 429.00 32.43 430.68 31.42
  Q 431.19 31.11 431.08 30.53
  L 429.42 21.25
  Q 429.31 20.63 428.74 20.35
  C 425.09 18.56 420.60 19.72 416.80 19.60
  Q 413.24 19.48 409.71 19.57
  Q 404.69 19.71 399.42 19.61
  Q 399.16 19.60 398.94 19.46
  Q 398.69 19.30 398.57 19.52
  Q 398.37 19.88 397.96 19.87
  L 383.85 19.57
  A 0.89 0.88 -88.7 0 0 382.95 20.44
  Q 382.90 22.13 384.59 21.47
  Z
  M 488.97 54.97
  Q 490.69 49.28 492.74 43.66
  Q 492.80 43.50 492.67 43.40
  Q 492.62 43.36 492.57 43.36
  Q 492.18 43.36 492.01 43.70
  C 489.05 49.39 484.60 52.84 477.94 53.51
  Q 473.10 54.00 473.09 49.26
  Q 473.05 37.25 473.09 25.24
  Q 473.09 23.07 474.67 21.75
  Q 476.14 21.66 476.27 20.81
  Q 476.34 20.36 475.90 20.26
  Q 469.70 18.88 463.83 19.81
  Q 462.95 19.95 462.93 20.83
  Q 462.80 24.88 464.14 28.27
  C 464.75 29.82 464.80 31.59 464.96 33.25
  Q 465.12 34.96 464.92 36.83
  Q 464.14 43.92 464.51 50.92
  Q 464.55 51.65 464.24 52.01
  Q 463.77 52.54 463.04 52.41
  Q 462.51 52.31 462.27 51.82
  Q 460.92 49.04 460.67 46.05
  Q 460.63 45.58 460.29 45.26
  Q 459.55 44.55 459.63 43.54
  Q 459.68 43.00 459.43 42.52
  Q 458.92 41.54 458.80 40.41
  A 2.06 2.03 -69.3 0 0 458.29 39.26
  Q 457.49 38.36 457.35 37.07
  Q 457.18 35.56 456.40 34.06
  Q 455.77 32.83 455.44 31.01
  Q 455.05 28.90 454.39 26.92
  Q 453.75 24.97 453.53 22.58
  Q 453.37 20.91 452.26 20.22
  C 449.71 18.65 442.62 19.38 439.81 19.64
  A 0.79 0.78 1.4 0 0 439.11 20.30
  C 438.85 22.10 438.57 24.21 437.78 25.84
  Q 437.35 26.73 437.20 27.75
  Q 436.98 29.20 436.38 30.70
  Q 433.82 37.11 431.62 43.41
  Q 429.43 49.67 428.00 52.06
  Q 427.09 53.57 426.52 55.01
  Q 426.36 55.42 426.03 55.70
  Q 425.48 56.17 425.78 56.86
  C 426.86 59.35 428.56 60.39 431.22 60.25
  Q 433.66 60.13 436.27 60.50
  Q 436.79 60.57 437.17 60.22
  Q 438.98 58.50 439.21 56.09
  Q 439.49 53.01 439.65 49.89
  Q 439.73 48.22 440.88 47.06
  Q 442.12 45.81 443.82 45.80
  Q 445.28 45.79 446.32 46.86
  Q 448.39 48.99 449.90 51.08
  A 1.13 1.13 0.0 0 1 450.08 52.00
  Q 449.38 54.95 449.87 57.81
  Q 449.99 58.53 450.44 59.01
  C 451.26 59.90 451.90 60.40 453.19 60.41
  C 456.84 60.45 460.27 60.11 463.88 60.22
  Q 466.36 60.30 468.80 59.89
  C 474.81 58.87 480.99 60.42 486.85 59.23
  A 1.38 1.31 -74.0 0 0 487.58 58.80
  Q 488.27 58.05 488.34 57.12
  Q 488.37 56.69 488.70 56.43
  Q 489.29 55.98 488.97 54.97
  Z
  M 328.46 20.59
  Q 330.69 23.30 330.73 24.75
  Q 331.06 37.13 330.65 52.02
  Q 330.59 54.06 328.86 54.98
  Q 326.99 55.98 329.10 56.14
  Q 334.24 56.53 339.42 55.94
  Q 340.43 55.83 339.52 55.37
  Q 336.81 54.02 336.80 50.75
  Q 336.74 37.51 336.88 25.25
  Q 336.91 22.90 338.51 21.74
  Q 339.50 22.17 339.95 21.04
  A 0.58 0.58 0.0 0 0 339.39 20.25
  L 328.46 20.59
  Z"
/>
<path fill="#f3f3f2" d="
  M 226.42 22.00
  Q 226.88 21.67 226.87 21.31
  A 0.41 0.41 0.0 0 0 226.46 20.91
  L 217.75 20.87
  Q 216.54 20.86 217.44 21.67
  Q 218.92 22.99 218.99 25.06
  Q 219.39 37.28 219.06 51.54
  Q 219.00 54.19 216.89 55.11
  Q 215.24 55.82 217.03 56.02
  Q 222.15 56.57 228.35 55.86
  Q 227.46 56.53 227.36 57.21
  Q 227.29 57.67 226.87 57.89
  Q 226.37 58.16 225.90 58.50
  Q 225.49 58.80 225.00 58.87
  Q 222.15 59.33 219.38 60.12
  Q 217.70 60.59 216.16 58.99
  Q 213.42 56.12 215.42 52.87
  Q 215.66 52.47 215.64 52.00
  Q 215.38 44.61 216.56 38.03
  Q 216.86 36.34 215.53 35.34
  Q 215.29 35.17 215.00 35.22
  C 213.01 35.60 213.09 37.36 211.75 38.47
  Q 209.59 40.25 207.09 41.02
  Q 206.65 41.15 206.36 41.50
  Q 205.90 42.05 205.11 42.01
  A 1.48 1.45 -65.8 0 0 204.01 42.44
  Q 203.00 43.42 201.58 43.58
  A 2.83 2.82 -4.1 0 0 199.08 46.46
  L 199.25 52.67
  Q 199.27 53.13 199.62 53.41
  Q 199.79 53.54 199.93 53.69
  Q 200.07 53.84 200.10 54.04
  Q 200.62 58.07 196.18 59.27
  Q 189.93 60.95 184.64 59.94
  Q 182.74 59.58 180.89 59.58
  C 178.16 59.57 176.30 60.88 173.57 59.23
  A 1.58 1.57 -83.5 0 1 172.86 58.33
  Q 172.18 56.17 172.56 54.23
  Q 173.10 51.48 171.31 48.69
  C 170.44 47.33 169.10 46.97 167.82 46.12
  C 166.02 44.92 163.60 45.17 162.28 46.90
  Q 161.58 47.83 161.46 49.25
  Q 161.34 50.73 161.12 52.12
  Q 161.02 52.71 161.33 53.24
  Q 162.03 54.42 161.94 56.05
  Q 161.91 56.58 161.51 56.95
  Q 160.87 57.53 160.53 58.35
  Q 160.29 58.93 159.66 59.03
  L 153.57 60.04
  Q 152.76 60.17 152.08 59.72
  Q 150.24 58.52 149.43 56.80
  Q 149.21 56.33 149.52 55.92
  L 149.90 55.42
  Q 149.96 55.96 150.50 55.97
  Q 154.63 56.06 159.51 55.97
  Q 160.93 55.94 159.64 55.34
  Q 156.76 54.00 157.88 50.61
  Q 159.57 45.42 161.53 40.45
  Q 161.75 39.88 162.37 39.93
  Q 171.67 40.69 175.46 48.26
  C 176.47 50.28 176.98 53.70 174.64 55.09
  Q 173.32 55.87 174.86 55.93
  Q 180.03 56.15 185.02 55.93
  Q 186.51 55.86 185.18 55.18
  Q 183.42 54.27 182.74 52.24
  Q 178.58 39.92 173.26 24.71
  Q 172.60 22.84 173.77 21.23
  Q 174.15 20.71 173.51 20.71
  L 163.72 20.67
  Q 163.00 20.66 163.44 21.23
  Q 164.63 22.76 163.78 25.00
  Q 156.30 44.85 152.71 53.50
  Q 152.45 50.94 154.00 45.99
  Q 156.24 38.88 158.66 31.83
  C 159.16 30.40 159.37 28.94 159.72 27.45
  Q 159.83 26.98 160.23 26.70
  Q 160.54 26.47 160.52 26.11
  Q 160.20 22.00 162.40 18.82
  Q 162.99 17.98 163.27 16.90
  C 164.05 13.99 167.12 10.66 169.26 8.95
  Q 170.18 8.21 171.45 7.95
  Q 172.78 7.67 173.87 8.07
  Q 176.98 9.22 177.37 12.18
  Q 177.60 13.90 176.88 15.86
  C 175.73 19.01 176.53 21.47 176.20 24.58
  Q 176.15 25.07 176.46 25.45
  C 177.21 26.37 176.70 27.49 177.08 28.61
  Q 177.49 29.86 178.09 31.03
  Q 178.63 32.08 178.81 33.09
  Q 179.21 35.36 180.24 37.41
  Q 180.90 38.72 181.05 40.23
  Q 181.20 41.61 181.80 42.74
  Q 182.39 43.83 182.71 45.04
  Q 183.67 48.80 184.69 51.92
  Q 185.03 52.95 186.05 53.27
  A 0.92 0.91 -79.8 0 0 187.24 52.44
  C 187.43 48.93 187.05 45.46 187.19 41.93
  Q 187.40 36.83 187.33 31.27
  Q 187.31 29.78 186.46 25.88
  Q 185.91 23.37 186.20 20.33
  A 0.68 0.67 89.5 0 1 186.79 19.72
  C 192.69 19.00 198.05 18.93 203.90 18.87
  Q 208.00 18.84 212.03 19.16
  Q 217.06 19.55 222.88 18.58
  Q 226.34 18.00 228.56 20.28
  Q 228.95 20.69 228.67 21.18
  Q 228.10 22.19 226.42 22.00
  Z
  M 166.89 17.08
  Q 169.74 15.93 172.91 14.33
  C 177.50 12.01 173.10 7.04 170.31 10.81
  C 168.94 12.66 167.47 14.36 166.27 16.35
  Q 165.50 17.64 166.89 17.08
  Z
  M 187.95 20.74
  A 0.27 0.27 0.0 0 0 187.77 21.21
  Q 189.93 23.03 189.95 26.26
  Q 190.05 39.44 189.86 51.82
  Q 189.83 54.05 188.09 54.82
  Q 185.83 55.82 188.30 55.93
  Q 193.28 56.14 198.08 55.95
  Q 199.65 55.88 198.23 55.21
  Q 196.06 54.17 195.99 51.31
  Q 195.84 45.35 195.96 40.26
  Q 195.98 39.69 196.52 39.53
  C 202.00 37.90 213.66 34.29 214.60 27.47
  C 215.26 22.60 211.14 20.70 206.91 20.83
  Q 197.19 21.10 187.95 20.74
  Z"
/>
<path fill="#d0a933" d="
  M 166.89 17.08
  Q 165.50 17.64 166.27 16.35
  C 167.47 14.36 168.94 12.66 170.31 10.81
  C 173.10 7.04 177.50 12.01 172.91 14.33
  Q 169.74 15.93 166.89 17.08
  Z"
/>
<path fill="#f3f3f2" d="
  M 268.64 52.12
  Q 266.90 54.50 264.78 56.04
  Q 256.21 62.21 245.02 59.98
  Q 240.93 59.16 237.69 56.32
  Q 234.44 53.48 232.25 50.27
  Q 230.32 47.43 229.72 41.83
  Q 229.39 38.74 230.18 35.43
  Q 231.44 30.17 233.51 26.76
  Q 235.76 23.03 240.48 20.58
  Q 244.90 18.29 249.61 19.12
  Q 250.79 19.33 251.83 19.07
  Q 256.42 17.90 261.57 20.42
  Q 265.36 22.27 268.24 25.69
  Q 270.27 28.11 271.07 31.33
  Q 271.85 34.48 272.25 37.87
  Q 272.52 40.18 271.91 42.59
  Q 271.31 44.96 270.87 47.31
  Q 270.42 49.67 268.64 52.12
  Z
  M 270.0380 39.6872
  A 19.12 18.52 3.8 0 0 252.1874 19.9407
  A 19.12 18.52 3.8 0 0 231.8820 37.1528
  A 19.12 18.52 3.8 0 0 249.7326 56.8993
  A 19.12 18.52 3.8 0 0 270.0380 39.6872
  Z"
/>
<path fill="#f3f3f2" d="
  M 25.60 20.09
  C 14.44 21.40 8.46 29.40 10.39 40.34
  C 11.91 48.98 18.24 54.96 26.94 56.30
  C 31.72 57.04 35.96 56.56 40.60 56.38
  A 0.60 0.60 0.0 0 0 41.15 55.99
  L 44.84 46.34
  Q 47.37 47.53 48.44 43.98
  Q 49.23 41.37 50.02 39.43
  Q 50.92 37.23 51.74 34.97
  Q 52.55 32.72 53.45 30.49
  Q 54.76 27.25 55.53 21.68
  Q 55.60 21.15 56.12 21.02
  Q 56.49 20.92 56.60 20.56
  Q 56.77 20.01 57.33 19.91
  Q 61.65 19.12 65.49 19.32
  Q 66.96 19.40 68.39 20.15
  Q 67.89 20.74 67.25 20.72
  Q 62.81 20.60 58.11 20.74
  Q 57.60 20.76 57.91 21.16
  Q 59.11 22.70 58.45 24.49
  Q 53.58 37.68 48.32 51.27
  Q 47.31 53.87 45.25 54.98
  Q 43.36 56.00 45.51 56.00
  L 53.75 56.00
  Q 55.99 56.00 53.97 55.16
  Q 51.34 54.06 52.33 50.83
  Q 53.96 45.53 56.07 40.39
  Q 56.27 39.91 56.80 39.94
  Q 65.28 40.46 69.47 47.31
  Q 71.39 50.45 70.44 53.74
  Q 70.28 54.29 69.81 54.59
  Q 69.31 54.91 68.82 55.25
  Q 67.71 56.01 69.05 56.01
  L 79.54 56.01
  Q 80.41 56.01 79.72 55.48
  Q 78.03 54.20 77.53 52.76
  Q 72.93 39.51 67.89 25.09
  Q 66.91 22.27 68.78 20.86
  Q 69.21 20.69 69.74 21.06
  A 1.37 1.32 11.8 0 1 70.31 21.90
  Q 71.21 26.17 72.34 29.82
  Q 72.53 30.45 72.88 31.07
  Q 73.15 31.55 73.09 32.10
  Q 73.04 32.58 73.41 32.86
  Q 73.90 33.24 73.88 33.86
  Q 73.84 35.00 74.42 35.88
  Q 74.96 36.69 75.14 37.91
  Q 75.52 40.59 76.79 43.88
  Q 77.51 45.76 78.06 47.89
  Q 78.62 50.04 79.47 52.01
  A 1.12 1.11 44.4 0 0 81.53 51.99
  C 82.10 50.58 81.66 49.37 81.65 47.99
  Q 81.58 40.31 81.40 32.34
  C 81.36 30.55 81.79 28.55 81.01 26.89
  Q 79.75 24.21 79.57 21.39
  A 1.68 1.68 0.0 0 1 81.35 19.61
  C 82.75 19.70 84.09 19.07 85.52 19.09
  Q 94.61 19.23 103.22 18.89
  Q 105.51 18.80 107.77 19.54
  Q 109.50 20.11 110.58 21.55
  Q 111.37 22.60 111.30 23.90
  Q 111.14 26.97 111.11 29.84
  Q 111.04 34.24 107.58 35.70
  A 1.94 1.94 0.0 0 0 106.68 38.49
  Q 108.73 41.88 110.73 45.68
  Q 112.16 48.38 112.96 51.36
  A 1.36 1.36 0.0 0 0 115.39 51.78
  Q 115.89 51.07 115.29 50.36
  Q 114.98 49.98 114.97 49.49
  Q 114.89 39.79 115.13 29.93
  C 115.22 26.45 114.24 23.58 113.45 20.36
  A 0.67 0.67 0.0 0 1 113.98 19.53
  Q 118.61 18.64 123.95 18.85
  Q 125.00 18.89 125.97 19.14
  C 127.39 19.51 128.67 19.19 130.11 19.67
  Q 131.01 19.97 132.00 20.36
  Q 132.35 20.50 132.51 20.17
  Q 132.69 19.78 133.12 19.88
  C 135.45 20.41 137.92 20.24 140.05 21.44
  Q 142.59 22.86 144.98 24.64
  C 146.39 25.69 146.99 26.98 147.95 28.40
  Q 148.52 29.25 148.86 30.17
  Q 149.46 31.86 150.30 33.55
  C 151.65 36.26 151.71 40.80 151.19 43.25
  Q 150.37 47.05 147.65 51.67
  Q 145.33 55.59 141.79 57.36
  Q 137.69 59.41 133.96 59.79
  Q 130.19 60.18 125.46 59.58
  C 121.82 59.13 118.32 60.39 114.69 59.83
  Q 110.47 59.18 106.53 59.98
  C 104.78 60.33 103.32 59.38 102.38 57.95
  Q 102.07 57.48 102.13 56.92
  Q 102.20 56.26 101.90 55.69
  Q 101.66 55.26 101.68 54.77
  Q 101.78 50.21 99.68 46.13
  C 98.46 43.77 96.58 43.80 95.01 42.06
  A 0.69 0.67 65.6 0 0 94.45 41.84
  Q 92.78 41.96 92.76 44.61
  A 2.36 0.35 -84.3 0 0 92.79 45.25
  L 93.56 52.38
  Q 93.61 52.78 93.81 53.12
  Q 95.20 55.49 94.21 57.80
  A 1.14 1.12 -87.4 0 1 93.54 58.42
  Q 85.91 61.09 78.72 59.58
  C 76.39 59.09 74.11 59.40 71.78 59.96
  C 69.15 60.58 66.44 58.86 67.89 55.74
  Q 68.07 55.37 67.76 55.14
  Q 67.51 54.96 67.51 54.66
  Q 67.47 52.76 67.12 50.79
  Q 66.78 48.82 65.26 47.71
  Q 62.54 45.73 59.69 45.35
  A 1.64 1.64 0.0 0 0 58.48 45.67
  Q 56.40 47.30 56.63 49.81
  Q 56.67 50.24 56.48 50.63
  Q 55.63 52.32 56.35 53.98
  Q 56.69 54.76 56.60 55.57
  Q 56.28 58.60 54.19 60.13
  Q 52.95 61.05 51.33 60.93
  C 49.93 60.83 48.57 61.04 47.25 60.58
  Q 44.53 59.64 42.18 60.13
  Q 39.76 60.64 37.19 60.60
  C 29.85 60.49 23.50 60.74 17.28 56.38
  C 15.34 55.02 14.07 53.15 12.44 51.46
  Q 11.50 50.49 10.77 49.28
  Q 6.54 42.36 7.47 33.30
  Q 7.64 31.68 8.45 30.26
  C 9.24 28.87 9.16 27.63 10.28 26.33
  Q 12.84 23.36 15.30 21.50
  Q 17.23 20.05 19.88 20.12
  Q 20.33 20.14 20.72 19.92
  Q 21.89 19.30 23.15 19.83
  Q 24.08 20.24 25.60 20.09
  Z
  M 102.05 35.31
  A 0.41 0.41 0.0 0 1 102.19 34.69
  Q 105.39 33.07 107.46 30.89
  C 109.26 29.00 110.32 24.41 107.90 22.40
  Q 106.04 20.87 103.42 20.88
  Q 94.39 20.93 83.46 20.90
  Q 81.65 20.89 83.05 22.03
  Q 84.30 23.04 84.31 25.50
  Q 84.40 38.11 84.33 51.25
  Q 84.31 54.21 82.03 55.04
  Q 80.11 55.74 82.14 55.87
  Q 88.24 56.25 93.14 55.84
  Q 94.21 55.75 93.20 55.41
  Q 90.50 54.49 90.38 51.39
  Q 90.17 45.82 90.31 40.01
  Q 90.32 39.32 90.98 39.10
  L 96.22 37.34
  A 0.88 0.88 0.0 0 1 97.16 37.61
  C 100.33 41.45 105.52 48.88 105.22 54.03
  Q 105.18 54.58 104.71 54.85
  L 104.32 55.07
  Q 102.70 55.98 104.56 55.98
  Q 118.73 56.00 131.74 56.04
  C 153.57 56.10 153.88 26.97 134.68 21.53
  Q 131.33 20.58 125.50 20.80
  Q 121.03 20.96 116.32 20.85
  Q 115.22 20.82 115.97 21.62
  Q 117.88 23.66 117.80 26.58
  Q 117.49 38.49 117.72 50.45
  C 117.81 55.10 113.47 57.42 111.55 52.21
  Q 108.18 43.09 102.05 35.31
  Z"
/>
<path fill="#f3f3f2" d="
  M 290.23 55.35
  L 290.28 55.64
  Q 290.34 55.96 290.67 55.98
  Q 301.77 56.53 310.45 55.78
  C 322.64 54.72 327.23 40.65 321.93 30.86
  C 318.03 23.65 310.60 20.28 302.20 20.72
  Q 296.68 21.01 291.40 20.66
  Q 290.78 20.62 290.87 21.23
  Q 290.91 21.53 291.32 21.75
  Q 290.01 22.02 289.31 21.20
  A 0.83 0.83 0.0 0 1 289.83 19.84
  Q 298.27 18.68 306.76 20.40
  C 308.92 20.84 310.81 20.08 312.80 20.72
  Q 315.58 21.62 318.59 23.17
  Q 319.82 23.80 320.63 25.04
  C 321.34 26.14 322.32 26.73 322.92 27.95
  Q 327.70 37.63 325.68 46.57
  Q 323.81 54.81 316.14 57.67
  Q 313.60 58.62 310.96 59.27
  Q 308.49 59.88 305.71 60.00
  Q 300.21 60.23 294.50 59.84
  Q 293.50 59.77 293.06 59.03
  Q 292.75 58.50 292.27 58.07
  Q 291.47 57.34 290.45 56.83
  Q 289.99 56.61 289.95 56.10
  Q 289.91 55.64 290.23 55.35
  Z"
/>
<path fill="#f3f3f2" d="
  M 358.80 20.08
  C 350.03 21.17 343.77 27.10 343.68 35.93
  Q 343.61 42.17 346.05 46.19
  Q 350.71 53.86 357.73 55.35
  Q 365.63 57.03 379.38 55.96
  Q 379.83 57.20 378.67 58.49
  A 1.08 1.08 0.0 0 1 377.85 58.84
  Q 376.59 58.83 374.62 59.39
  Q 373.36 59.75 369.54 60.02
  Q 367.17 60.19 364.45 59.88
  Q 360.50 59.42 356.51 58.99
  Q 353.48 58.67 349.44 55.66
  Q 347.21 54.00 344.85 50.09
  Q 343.04 47.11 342.55 43.83
  Q 341.70 38.16 342.34 33.22
  Q 342.90 28.82 345.82 23.78
  Q 346.39 22.79 347.44 22.51
  Q 347.92 22.38 348.31 22.06
  Q 350.51 20.22 353.41 19.67
  C 355.13 19.33 356.89 20.00 358.80 20.08
  Z"
/>
<path fill="#f3f3f2" d="
  M 396.12 55.71
  Q 392.94 54.43 392.86 49.98
  Q 392.67 38.89 392.86 27.17
  C 392.90 24.91 392.82 23.17 394.54 21.64
  Q 395.43 20.84 394.24 20.82
  L 385.02 20.69
  Q 384.60 20.69 384.47 21.09
  Q 384.41 21.30 384.59 21.47
  Q 382.90 22.13 382.95 20.44
  A 0.89 0.88 -88.7 0 1 383.85 19.57
  L 397.96 19.87
  Q 398.37 19.88 398.57 19.52
  Q 398.69 19.30 398.94 19.46
  Q 399.16 19.60 399.42 19.61
  Q 404.69 19.71 409.71 19.57
  Q 413.24 19.48 416.80 19.60
  C 420.60 19.72 425.09 18.56 428.74 20.35
  Q 429.31 20.63 429.42 21.25
  L 431.08 30.53
  Q 431.19 31.11 430.68 31.42
  Q 429.00 32.43 426.80 32.13
  Q 425.22 31.91 424.17 30.76
  Q 422.79 29.25 421.04 28.22
  A 1.61 1.59 -41.6 0 0 419.57 28.14
  Q 418.09 28.81 418.35 30.33
  C 418.84 33.25 419.30 35.81 418.95 38.85
  Q 418.50 42.75 418.71 46.53
  Q 418.79 48.02 418.66 49.52
  Q 418.47 51.74 419.25 53.59
  Q 420.18 55.80 418.54 57.71
  Q 417.64 58.75 416.21 58.98
  Q 413.48 59.43 411.12 59.85
  C 408.63 60.29 407.43 58.03 406.54 56.26
  A 1.18 1.17 42.1 0 1 406.49 55.32
  Q 407.05 53.86 407.00 52.15
  Q 406.69 42.45 407.13 31.88
  C 407.18 30.87 406.76 29.96 406.35 29.06
  A 0.88 0.88 0.0 0 0 404.99 28.75
  Q 401.62 31.51 397.70 33.53
  Q 397.24 33.76 397.05 34.24
  Q 396.01 36.82 395.83 40.04
  Q 395.57 44.74 395.13 49.20
  Q 394.93 51.25 395.64 53.46
  Q 395.81 53.99 395.88 54.57
  Q 395.95 55.04 396.12 55.71
  Z
  M 416.45 23.48
  Q 424.74 23.53 428.05 29.56
  Q 429.13 31.53 428.58 29.35
  L 426.62 21.58
  A 1.07 1.06 83.0 0 0 425.59 20.77
  L 399.66 20.67
  Q 399.19 20.67 399.06 21.12
  Q 397.74 25.71 396.92 30.07
  Q 396.76 30.88 397.14 30.15
  Q 400.78 23.16 409.22 23.59
  Q 409.78 23.62 409.78 24.18
  Q 409.79 37.47 409.72 49.83
  C 409.70 51.62 409.97 53.83 408.23 54.83
  Q 406.24 55.97 408.54 56.08
  Q 413.27 56.32 417.87 55.94
  Q 419.71 55.79 417.95 55.22
  L 417.54 55.09
  Q 416.99 54.91 416.73 54.39
  Q 415.76 52.47 415.76 50.06
  Q 415.78 36.45 415.76 24.17
  Q 415.76 23.48 416.45 23.48
  Z"
/>
<path fill="#f3f3f2" d="
  M 474.67 21.75
  Q 474.94 21.58 474.89 21.29
  Q 474.82 20.94 474.46 20.93
  L 465.24 20.69
  Q 464.33 20.67 464.90 21.39
  Q 465.23 21.80 465.70 22.09
  Q 466.28 22.45 466.50 23.10
  Q 467.08 24.80 467.10 26.63
  Q 467.22 38.20 467.05 50.99
  Q 467.00 54.49 464.17 55.23
  Q 463.52 55.40 464.07 55.78
  Q 464.39 56.00 464.76 55.99
  Q 476.86 55.93 487.46 56.26
  Q 488.16 56.28 488.45 55.96
  Q 488.78 55.62 488.97 54.97
  Q 489.29 55.98 488.70 56.43
  Q 488.37 56.69 488.34 57.12
  Q 488.27 58.05 487.58 58.80
  A 1.38 1.31 -74.0 0 1 486.85 59.23
  C 480.99 60.42 474.81 58.87 468.80 59.89
  Q 466.36 60.30 463.88 60.22
  C 460.27 60.11 456.84 60.45 453.19 60.41
  C 451.90 60.40 451.26 59.90 450.44 59.01
  Q 449.99 58.53 449.87 57.81
  Q 449.38 54.95 450.08 52.00
  A 1.13 1.13 0.0 0 0 449.90 51.08
  Q 448.39 48.99 446.32 46.86
  Q 445.28 45.79 443.82 45.80
  Q 442.12 45.81 440.88 47.06
  Q 439.73 48.22 439.65 49.89
  Q 439.49 53.01 439.21 56.09
  Q 438.98 58.50 437.17 60.22
  Q 436.79 60.57 436.27 60.50
  Q 433.66 60.13 431.22 60.25
  C 428.56 60.39 426.86 59.35 425.78 56.86
  Q 425.48 56.17 426.03 55.70
  Q 426.36 55.42 426.52 55.01
  Q 427.09 53.57 428.00 52.06
  Q 429.43 49.67 431.62 43.41
  Q 433.82 37.11 436.38 30.70
  Q 436.98 29.20 437.20 27.75
  Q 437.35 26.73 437.78 25.84
  C 438.57 24.21 438.85 22.10 439.11 20.30
  A 0.79 0.78 1.4 0 1 439.81 19.64
  C 442.62 19.38 449.71 18.65 452.26 20.22
  Q 453.37 20.91 453.53 22.58
  Q 453.75 24.97 454.39 26.92
  Q 455.05 28.90 455.44 31.01
  Q 455.77 32.83 456.40 34.06
  Q 457.18 35.56 457.35 37.07
  Q 457.49 38.36 458.29 39.26
  A 2.06 2.03 -69.3 0 1 458.80 40.41
  Q 458.92 41.54 459.43 42.52
  Q 459.68 43.00 459.63 43.54
  Q 459.55 44.55 460.29 45.26
  Q 460.63 45.58 460.67 46.05
  Q 460.92 49.04 462.27 51.82
  Q 462.51 52.31 463.04 52.41
  Q 463.77 52.54 464.24 52.01
  Q 464.55 51.65 464.51 50.92
  Q 464.14 43.92 464.92 36.83
  Q 465.12 34.96 464.96 33.25
  C 464.80 31.59 464.75 29.82 464.14 28.27
  Q 462.80 24.88 462.93 20.83
  Q 462.95 19.95 463.83 19.81
  Q 469.70 18.88 475.90 20.26
  Q 476.34 20.36 476.27 20.81
  Q 476.14 21.66 474.67 21.75
  Z
  M 439.80 39.99
  C 446.25 39.94 452.40 44.60 453.71 50.68
  Q 454.38 53.78 452.00 55.19
  Q 450.62 56.01 452.22 56.01
  L 462.50 56.01
  Q 464.11 56.01 462.70 55.22
  Q 461.08 54.31 460.48 52.57
  Q 455.71 38.90 450.60 24.23
  Q 450.11 22.82 450.88 21.73
  A 0.53 0.52 -72.0 0 0 450.46 20.90
  L 441.25 20.73
  Q 440.19 20.72 440.96 21.45
  Q 442.17 22.61 441.47 24.51
  Q 436.79 37.11 432.09 49.23
  C 431.12 51.73 430.38 53.88 428.03 55.14
  Q 426.44 56.00 428.25 56.00
  L 436.72 56.01
  Q 438.63 56.01 436.91 55.17
  Q 434.41 53.96 435.30 51.01
  Q 436.78 46.12 438.94 40.58
  Q 439.17 39.99 439.80 39.99
  Z"
/>
<path fill="#d0a933" d="
  M 25.60 20.09
  L 38.03 20.23
  Q 38.59 20.23 38.73 20.78
  L 40.90 29.74
  Q 36.62 23.33 29.87 22.74
  C 19.00 21.80 14.77 32.30 17.21 41.25
  Q 19.79 50.50 27.87 53.13
  C 34.96 55.44 41.11 52.68 44.26 45.95
  Q 44.44 45.56 44.70 45.90
  Q 44.83 46.07 44.84 46.34
  L 41.15 55.99
  A 0.60 0.60 0.0 0 1 40.60 56.38
  C 35.96 56.56 31.72 57.04 26.94 56.30
  C 18.24 54.96 11.91 48.98 10.39 40.34
  C 8.46 29.40 14.44 21.40 25.60 20.09
  Z"
/>
<path fill="#d0a933" d="
  M 270.0380 39.6872
  A 19.12 18.52 3.8 0 1 249.7326 56.8993
  A 19.12 18.52 3.8 0 1 231.8820 37.1528
  A 19.12 18.52 3.8 0 1 252.1874 19.9407
  A 19.12 18.52 3.8 0 1 270.0380 39.6872
  Z
  M 238.52 39.53
  A 15.85 12.41 76.8 0 0 244.15 50.58
  A 15.86 12.42 76.5 0 0 255.04 53.65
  A 15.83 12.40 76.6 0 0 261.80 47.75
  A 15.84 12.41 76.7 0 0 261.59 31.47
  A 15.82 12.40 76.6 0 0 253.19 23.34
  A 15.85 12.42 76.6 0 0 241.61 26.58
  A 15.82 12.42 76.7 0 0 238.52 39.53
  Z"
/>
<path fill="#d0a933" d="
  M 358.80 20.08
  Q 364.14 19.70 369.66 20.86
  Q 370.20 20.98 370.68 20.71
  L 371.50 20.25
  Q 372.27 19.83 372.43 20.69
  L 374.04 29.24
  Q 373.88 29.27 373.74 29.24
  A 0.41 0.41 0.0 0 1 373.46 29.03
  C 371.34 25.16 367.05 22.72 362.67 22.74
  Q 350.92 22.78 350.10 35.24
  Q 349.76 40.27 352.55 45.19
  Q 357.53 54.96 369.03 53.16
  C 370.43 52.94 371.21 50.89 371.23 49.57
  Q 371.36 43.73 371.24 37.98
  C 371.20 35.73 371.32 33.90 369.21 32.63
  Q 367.77 31.76 369.45 31.74
  Q 374.27 31.70 378.58 31.81
  Q 380.68 31.86 378.76 32.72
  Q 377.44 33.31 377.43 34.84
  Q 377.35 43.46 377.40 52.32
  Q 377.42 54.44 379.43 55.31
  Q 379.61 55.39 379.65 55.59
  Q 379.69 55.79 379.38 55.96
  Q 365.63 57.03 357.73 55.35
  Q 350.71 53.86 346.05 46.19
  Q 343.61 42.17 343.68 35.93
  C 343.77 27.10 350.03 21.17 358.80 20.08
  Z"
/>
<path fill="#d0a933" d="
  M 68.39 20.15
  Q 68.41 20.43 68.78 20.86
  Q 66.91 22.27 67.89 25.09
  Q 72.93 39.51 77.53 52.76
  Q 78.03 54.20 79.72 55.48
  Q 80.41 56.01 79.54 56.01
  L 69.05 56.01
  Q 67.71 56.01 68.82 55.25
  Q 69.31 54.91 69.81 54.59
  Q 70.28 54.29 70.44 53.74
  Q 71.39 50.45 69.47 47.31
  Q 65.28 40.46 56.80 39.94
  Q 56.27 39.91 56.07 40.39
  Q 53.96 45.53 52.33 50.83
  Q 51.34 54.06 53.97 55.16
  Q 55.99 56.00 53.75 56.00
  L 45.51 56.00
  Q 43.36 56.00 45.25 54.98
  Q 47.31 53.87 48.32 51.27
  Q 53.58 37.68 58.45 24.49
  Q 59.11 22.70 57.91 21.16
  Q 57.60 20.76 58.11 20.74
  Q 62.81 20.60 67.25 20.72
  Q 67.89 20.74 68.39 20.15
  Z
  M 57.11 36.89
  Q 56.84 37.58 57.58 37.62
  Q 62.78 37.90 66.87 40.83
  Q 67.63 41.37 67.32 40.49
  L 62.10 25.52
  Q 61.78 24.59 61.43 25.51
  L 57.11 36.89
  Z"
/>
<path fill="#f3f3f2" d="
  M 338.51 21.74
  Q 338.87 21.24 337.74 21.19
  Q 334.18 21.04 328.46 20.59
  L 339.39 20.25
  A 0.58 0.58 0.0 0 1 339.95 21.04
  Q 339.50 22.17 338.51 21.74
  Z"
/>
<path fill="#d0a933" d="
  M 415.76 24.17
  Q 415.78 36.45 415.76 50.06
  Q 415.76 52.47 416.73 54.39
  Q 416.99 54.91 417.54 55.09
  L 417.95 55.22
  Q 419.71 55.79 417.87 55.94
  Q 413.27 56.32 408.54 56.08
  Q 406.24 55.97 408.23 54.83
  C 409.97 53.83 409.70 51.62 409.72 49.83
  Q 409.79 37.47 409.78 24.18
  Q 409.78 23.62 409.22 23.59
  Q 400.78 23.16 397.14 30.15
  Q 396.76 30.88 396.92 30.07
  Q 397.74 25.71 399.06 21.12
  Q 399.19 20.67 399.66 20.67
  L 425.59 20.77
  A 1.07 1.06 83.0 0 1 426.62 21.58
  L 428.58 29.35
  Q 429.13 31.53 428.05 29.56
  Q 424.74 23.53 416.45 23.48
  Q 415.76 23.48 415.76 24.17
  Z"
/>
<path fill="#d0a933" d="
  M 102.05 35.31
  Q 108.18 43.09 111.55 52.21
  C 113.47 57.42 117.81 55.10 117.72 50.45
  Q 117.49 38.49 117.80 26.58
  Q 117.88 23.66 115.97 21.62
  Q 115.22 20.82 116.32 20.85
  Q 121.03 20.96 125.50 20.80
  Q 131.33 20.58 134.68 21.53
  C 153.88 26.97 153.57 56.10 131.74 56.04
  Q 118.73 56.00 104.56 55.98
  Q 102.70 55.98 104.32 55.07
  L 104.71 54.85
  Q 105.18 54.58 105.22 54.03
  C 105.52 48.88 100.33 41.45 97.16 37.61
  A 0.88 0.88 0.0 0 0 96.22 37.34
  L 90.98 39.10
  Q 90.32 39.32 90.31 40.01
  Q 90.17 45.82 90.38 51.39
  Q 90.50 54.49 93.20 55.41
  Q 94.21 55.75 93.14 55.84
  Q 88.24 56.25 82.14 55.87
  Q 80.11 55.74 82.03 55.04
  Q 84.31 54.21 84.33 51.25
  Q 84.40 38.11 84.31 25.50
  Q 84.30 23.04 83.05 22.03
  Q 81.65 20.89 83.46 20.90
  Q 94.39 20.93 103.42 20.88
  Q 106.04 20.87 107.90 22.40
  C 110.32 24.41 109.26 29.00 107.46 30.89
  Q 105.39 33.07 102.19 34.69
  A 0.41 0.41 0.0 0 0 102.05 35.31
  Z
  M 103.34 28.88
  C 104.32 26.80 103.05 24.09 100.77 23.43
  Q 97.18 22.38 92.87 23.25
  Q 90.30 23.76 90.27 26.39
  Q 90.20 31.24 90.31 36.13
  Q 90.32 36.74 90.91 36.59
  C 94.88 35.58 101.43 32.90 103.34 28.88
  Z
  M 123.75 34.64
  Q 123.58 40.83 123.54 47.25
  Q 123.52 50.53 124.34 51.87
  Q 125.09 53.09 126.48 53.29
  Q 136.09 54.62 140.57 47.53
  Q 144.35 38.25 139.83 30.21
  Q 136.07 23.54 127.55 22.95
  C 125.35 22.80 123.67 23.93 123.60 26.25
  Q 123.48 30.33 123.75 34.64
  Z"
/>
<path fill="#d0a933" d="
  M 149.90 55.42
  Q 151.45 54.73 152.71 53.50
  Q 156.30 44.85 163.78 25.00
  Q 164.63 22.76 163.44 21.23
  Q 163.00 20.66 163.72 20.67
  L 173.51 20.71
  Q 174.15 20.71 173.77 21.23
  Q 172.60 22.84 173.26 24.71
  Q 178.58 39.92 182.74 52.24
  Q 183.42 54.27 185.18 55.18
  Q 186.51 55.86 185.02 55.93
  Q 180.03 56.15 174.86 55.93
  Q 173.32 55.87 174.64 55.09
  C 176.98 53.70 176.47 50.28 175.46 48.26
  Q 171.67 40.69 162.37 39.93
  Q 161.75 39.88 161.53 40.45
  Q 159.57 45.42 157.88 50.61
  Q 156.76 54.00 159.64 55.34
  Q 160.93 55.94 159.51 55.97
  Q 154.63 56.06 150.50 55.97
  Q 149.96 55.96 149.90 55.42
  Z
  M 163.06 37.57
  C 166.44 37.82 169.68 38.86 172.33 40.81
  Q 173.11 41.38 172.79 40.47
  L 167.65 25.75
  Q 167.29 24.69 166.88 25.74
  L 162.63 36.89
  Q 162.38 37.52 163.06 37.57
  Z"
/>
<path fill="#d0a933" d="
  M 187.95 20.74
  Q 197.19 21.10 206.91 20.83
  C 211.14 20.70 215.26 22.60 214.60 27.47
  C 213.66 34.29 202.00 37.90 196.52 39.53
  Q 195.98 39.69 195.96 40.26
  Q 195.84 45.35 195.99 51.31
  Q 196.06 54.17 198.23 55.21
  Q 199.65 55.88 198.08 55.95
  Q 193.28 56.14 188.30 55.93
  Q 185.83 55.82 188.09 54.82
  Q 189.83 54.05 189.86 51.82
  Q 190.05 39.44 189.95 26.26
  Q 189.93 23.03 187.77 21.21
  A 0.27 0.27 0.0 0 1 187.95 20.74
  Z
  M 196.56 36.85
  Q 202.15 35.29 206.08 32.26
  C 209.94 29.29 209.73 24.27 204.21 23.21
  C 201.59 22.70 196.09 22.32 195.97 26.16
  Q 195.80 31.24 195.89 36.34
  Q 195.90 37.03 196.56 36.85
  Z"
/>
<path fill="#d0a933" d="
  M 290.23 55.35
  Q 292.97 54.56 293.06 50.75
  Q 293.37 38.18 293.11 25.63
  Q 293.05 22.87 291.32 21.75
  Q 290.91 21.53 290.87 21.23
  Q 290.78 20.62 291.40 20.66
  Q 296.68 21.01 302.20 20.72
  C 310.60 20.28 318.03 23.65 321.93 30.86
  C 327.23 40.65 322.64 54.72 310.45 55.78
  Q 301.77 56.53 290.67 55.98
  Q 290.34 55.96 290.28 55.64
  L 290.23 55.35
  Z
  M 306.00 53.41
  C 316.27 52.81 319.42 43.05 316.98 34.50
  Q 313.84 23.45 302.77 22.96
  C 300.95 22.88 299.21 23.92 299.17 25.91
  Q 298.95 37.30 299.17 49.48
  C 299.24 53.73 302.96 53.59 306.00 53.41
  Z"
/>
<path fill="#d0a933" d="
  M 328.46 20.59
  Q 334.18 21.04 337.74 21.19
  Q 338.87 21.24 338.51 21.74
  Q 336.91 22.90 336.88 25.25
  Q 336.74 37.51 336.80 50.75
  Q 336.81 54.02 339.52 55.37
  Q 340.43 55.83 339.42 55.94
  Q 334.24 56.53 329.10 56.14
  Q 326.99 55.98 328.86 54.98
  Q 330.59 54.06 330.65 52.02
  Q 331.06 37.13 330.73 24.75
  Q 330.69 23.30 328.46 20.59
  Z"
/>
<path fill="#d0a933" d="
  M 396.12 55.71
  Q 390.06 56.46 384.87 56.07
  Q 382.78 55.92 384.72 55.12
  Q 386.91 54.21 386.88 50.75
  Q 386.80 37.78 386.75 24.76
  Q 386.74 22.43 384.59 21.47
  Q 384.41 21.30 384.47 21.09
  Q 384.60 20.69 385.02 20.69
  L 394.24 20.82
  Q 395.43 20.84 394.54 21.64
  C 392.82 23.17 392.90 24.91 392.86 27.17
  Q 392.67 38.89 392.86 49.98
  Q 392.94 54.43 396.12 55.71
  Z"
/>
<path fill="#d0a933" d="
  M 438.94 40.58
  Q 436.78 46.12 435.30 51.01
  Q 434.41 53.96 436.91 55.17
  Q 438.63 56.01 436.72 56.01
  L 428.25 56.00
  Q 426.44 56.00 428.03 55.14
  C 430.38 53.88 431.12 51.73 432.09 49.23
  Q 436.79 37.11 441.47 24.51
  Q 442.17 22.61 440.96 21.45
  Q 440.19 20.72 441.25 20.73
  L 450.46 20.90
  A 0.53 0.52 -72.0 0 1 450.88 21.73
  Q 450.11 22.82 450.60 24.23
  Q 455.71 38.90 460.48 52.57
  Q 461.08 54.31 462.70 55.22
  Q 464.11 56.01 462.50 56.01
  L 452.22 56.01
  Q 450.62 56.01 452.00 55.19
  Q 454.38 53.78 453.71 50.68
  C 452.40 44.60 446.25 39.94 439.80 39.99
  Q 439.17 39.99 438.94 40.58
  Z
  M 450.32 40.46
  L 445.05 25.53
  Q 444.76 24.71 444.45 25.52
  L 440.04 37.02
  A 0.43 0.43 0.0 0 0 440.41 37.60
  Q 445.92 37.93 449.83 40.83
  Q 450.67 41.46 450.32 40.46
  Z"
/>
<path fill="#d0a933" d="
  M 474.67 21.75
  Q 473.09 23.07 473.09 25.24
  Q 473.05 37.25 473.09 49.26
  Q 473.10 54.00 477.94 53.51
  C 484.60 52.84 489.05 49.39 492.01 43.70
  Q 492.18 43.36 492.57 43.36
  Q 492.62 43.36 492.67 43.40
  Q 492.80 43.50 492.74 43.66
  Q 490.69 49.28 488.97 54.97
  Q 488.78 55.62 488.45 55.96
  Q 488.16 56.28 487.46 56.26
  Q 476.86 55.93 464.76 55.99
  Q 464.39 56.00 464.07 55.78
  Q 463.52 55.40 464.17 55.23
  Q 467.00 54.49 467.05 50.99
  Q 467.22 38.20 467.10 26.63
  Q 467.08 24.80 466.50 23.10
  Q 466.28 22.45 465.70 22.09
  Q 465.23 21.80 464.90 21.39
  Q 464.33 20.67 465.24 20.69
  L 474.46 20.93
  Q 474.82 20.94 474.89 21.29
  Q 474.94 21.58 474.67 21.75
  Z"
/>
<path fill="#d0a933" d="
  M 226.42 22.00
  Q 225.20 23.11 225.17 25.25
  Q 225.01 35.86 225.10 46.47
  Q 225.15 51.37 225.17 51.51
  Q 225.65 54.46 228.35 55.86
  Q 222.15 56.57 217.03 56.02
  Q 215.24 55.82 216.89 55.11
  Q 219.00 54.19 219.06 51.54
  Q 219.39 37.28 218.99 25.06
  Q 218.92 22.99 217.44 21.67
  Q 216.54 20.86 217.75 20.87
  L 226.46 20.91
  A 0.41 0.41 0.0 0 1 226.87 21.31
  Q 226.88 21.67 226.42 22.00
  Z"
/>
<path fill="#f3f3f2" d="
  M 40.90 29.74
  Q 38.33 31.82 36.83 30.09
  Q 35.82 28.92 35.76 28.87
  Q 33.62 27.20 30.81 26.70
  C 27.54 26.11 23.46 25.77 21.38 28.76
  Q 20.63 29.84 19.73 30.85
  Q 18.81 31.89 18.37 33.11
  C 17.81 34.66 17.05 35.72 17.18 37.51
  Q 17.32 39.41 17.21 41.25
  C 14.77 32.30 19.00 21.80 29.87 22.74
  Q 36.62 23.33 40.90 29.74
  Z"
/>
<path fill="#f3f3f2" d="
  M 103.34 28.88
  C 101.43 32.90 94.88 35.58 90.91 36.59
  Q 90.32 36.74 90.31 36.13
  Q 90.20 31.24 90.27 26.39
  Q 90.30 23.76 92.87 23.25
  Q 97.18 22.38 100.77 23.43
  C 103.05 24.09 104.32 26.80 103.34 28.88
  Z"
/>
<path fill="#f3f3f2" d="
  M 261.80 47.75
  Q 261.49 47.09 261.57 46.13
  Q 261.61 45.63 261.22 45.31
  Q 260.78 44.96 261.06 44.45
  Q 261.14 44.30 261.11 44.13
  Q 261.04 43.84 260.75 43.71
  A 0.51 0.51 0.0 0 1 260.45 43.20
  Q 260.61 41.10 260.87 39.00
  Q 261.15 36.70 259.95 34.41
  Q 259.35 33.26 259.06 32.06
  Q 258.73 30.66 257.59 29.82
  Q 256.73 29.18 255.94 28.40
  Q 255.61 28.08 255.18 27.98
  Q 253.39 27.57 251.82 26.66
  C 249.78 25.48 247.10 26.16 245.21 27.38
  Q 244.36 27.93 243.84 28.76
  Q 243.24 29.71 242.28 30.25
  Q 241.95 30.44 241.86 30.82
  Q 241.50 32.34 240.04 33.23
  A 2.46 2.44 76.6 0 0 238.89 35.12
  L 238.52 39.53
  A 15.82 12.42 76.7 0 1 241.61 26.58
  A 15.85 12.42 76.6 0 1 253.19 23.34
  A 15.82 12.40 76.6 0 1 261.59 31.47
  A 15.84 12.41 76.7 0 1 261.80 47.75
  Z"
/>
<path fill="#f3f3f2" d="
  M 374.04 29.24
  Q 374.10 29.57 373.74 29.59
  Q 372.92 29.64 372.48 28.96
  Q 372.11 28.39 371.44 28.58
  Q 369.72 29.08 368.76 27.78
  A 1.67 1.65 80.0 0 0 367.90 27.17
  Q 362.80 25.66 360.31 26.01
  Q 356.64 26.52 354.99 28.84
  Q 354.32 29.78 353.50 30.69
  C 352.57 31.73 352.38 33.06 352.32 34.39
  Q 352.29 34.96 351.83 35.29
  Q 351.71 35.38 351.59 35.45
  Q 351.38 35.57 351.36 35.81
  Q 351.01 40.09 352.55 45.19
  Q 349.76 40.27 350.10 35.24
  Q 350.92 22.78 362.67 22.74
  C 367.05 22.72 371.34 25.16 373.46 29.03
  A 0.41 0.41 0.0 0 0 373.74 29.24
  Q 373.88 29.27 374.04 29.24
  Z"
/>
<path fill="#f3f3f2" d="
  M 140.57 47.53
  L 141.44 42.87
  Q 141.53 42.39 141.47 41.91
  Q 141.23 39.94 141.40 38.07
  A 1.38 1.35 -68.6 0 0 140.90 36.89
  Q 139.64 35.88 139.29 34.57
  Q 138.91 33.14 138.02 31.84
  Q 137.19 30.63 136.28 29.36
  Q 136.00 28.96 135.53 28.85
  Q 134.17 28.54 133.13 27.66
  A 0.34 0.32 -15.6 0 0 132.96 27.57
  L 126.96 25.97
  Q 126.64 25.89 126.53 26.20
  Q 126.29 26.86 125.97 26.85
  Q 125.40 26.84 125.17 27.37
  Q 123.82 30.42 123.75 34.64
  Q 123.48 30.33 123.60 26.25
  C 123.67 23.93 125.35 22.80 127.55 22.95
  Q 136.07 23.54 139.83 30.21
  Q 144.35 38.25 140.57 47.53
  Z"
/>
<path fill="#f3f3f2" d="
  M 196.56 36.85
  Q 195.90 37.03 195.89 36.34
  Q 195.80 31.24 195.97 26.16
  C 196.09 22.32 201.59 22.70 204.21 23.21
  C 209.73 24.27 209.94 29.29 206.08 32.26
  Q 202.15 35.29 196.56 36.85
  Z"
/>
<path fill="#ffffff" d="
  M 316.98 34.50
  C 319.42 43.05 316.27 52.81 306.00 53.41
  C 302.96 53.59 299.24 53.73 299.17 49.48
  Q 298.95 37.30 299.17 25.91
  C 299.21 23.92 300.95 22.88 302.77 22.96
  Q 313.84 23.45 316.98 34.50
  Z"
/>
<path fill="#f3f3f2" d="
  M 57.11 36.89
  L 61.43 25.51
  Q 61.78 24.59 62.10 25.52
  L 67.32 40.49
  Q 67.63 41.37 66.87 40.83
  Q 62.78 37.90 57.58 37.62
  Q 56.84 37.58 57.11 36.89
  Z"
/>
<path fill="#f3f3f2" d="
  M 450.32 40.46
  Q 450.67 41.46 449.83 40.83
  Q 445.92 37.93 440.41 37.60
  A 0.43 0.43 0.0 0 1 440.04 37.02
  L 444.45 25.52
  Q 444.76 24.71 445.05 25.53
  L 450.32 40.46
  Z"
/>
<path fill="#f3f3f2" d="
  M 172.33 40.81
  C 169.68 38.86 166.44 37.82 163.06 37.57
  Q 162.38 37.52 162.63 36.89
  L 166.88 25.74
  Q 167.29 24.69 167.65 25.75
  L 172.79 40.47
  Q 173.11 41.38 172.33 40.81
  Z"
/>
<path fill="#ffffff" d="
  M 140.57 47.53
  Q 136.09 54.62 126.48 53.29
  Q 125.09 53.09 124.34 51.87
  Q 123.52 50.53 123.54 47.25
  Q 123.58 40.83 123.75 34.64
  Q 123.82 30.42 125.17 27.37
  Q 125.40 26.84 125.97 26.85
  Q 126.29 26.86 126.53 26.20
  Q 126.64 25.89 126.96 25.97
  L 132.96 27.57
  A 0.34 0.32 -15.6 0 1 133.13 27.66
  Q 134.17 28.54 135.53 28.85
  Q 136.00 28.96 136.28 29.36
  Q 137.19 30.63 138.02 31.84
  Q 138.91 33.14 139.29 34.57
  Q 139.64 35.88 140.90 36.89
  A 1.38 1.35 -68.6 0 1 141.40 38.07
  Q 141.23 39.94 141.47 41.91
  Q 141.53 42.39 141.44 42.87
  L 140.57 47.53
  Z"
/>
<path fill="#ffffff" d="
  M 261.80 47.75
  A 15.83 12.40 76.6 0 1 255.04 53.65
  A 15.86 12.42 76.5 0 1 244.15 50.58
  A 15.85 12.41 76.8 0 1 238.52 39.53
  L 238.89 35.12
  A 2.46 2.44 76.6 0 1 240.04 33.23
  Q 241.50 32.34 241.86 30.82
  Q 241.95 30.44 242.28 30.25
  Q 243.24 29.71 243.84 28.76
  Q 244.36 27.93 245.21 27.38
  C 247.10 26.16 249.78 25.48 251.82 26.66
  Q 253.39 27.57 255.18 27.98
  Q 255.61 28.08 255.94 28.40
  Q 256.73 29.18 257.59 29.82
  Q 258.73 30.66 259.06 32.06
  Q 259.35 33.26 259.95 34.41
  Q 261.15 36.70 260.87 39.00
  Q 260.61 41.10 260.45 43.20
  A 0.51 0.51 0.0 0 0 260.75 43.71
  Q 261.04 43.84 261.11 44.13
  Q 261.14 44.30 261.06 44.45
  Q 260.78 44.96 261.22 45.31
  Q 261.61 45.63 261.57 46.13
  Q 261.49 47.09 261.80 47.75
  Z"
/>
</svg>
